<?xml version="1.0" encoding="UTF-8"?>
<svg id="Layer_2" data-name="Layer 2" xmlns="http://www.w3.org/2000/svg" viewBox="0 0 800 439.15">
  <defs>
    <style>
      .cls-1 {
        fill: #fff;
      }
    </style>
  </defs>
  <g id="Layer_1-2" data-name="Layer 1">
    <g>
      <path class="cls-1" d="M800,0v439.15H0V0h800ZM243.66,257.97c-3.71-.61-8.9.45-12.8,0,2.32-5.33,10.32-10.16,15.94-10.91,7.74-1.03,14.08,4.62,16.04,11.81,3.95,14.55-2.96,33.76-9.7,46.72-6.05,11.62-14.22,22.08-23.02,31.72l-.91.36c-3.63-.71-8.26-3.43-11.77-3.84-1.98-.23-2.44,2.7-1.29,3.47l10.7,3.72c-9.35,10.14-20.14,18.66-30.33,27.91-1.96,2.99,2.73,12.46,1.48,14.5s-15.14,7.94-17.83,10.29c-.98.9-.3,2.17.06,3.22,1.84,1.27,16.62-9.03,19.52-9.99,1.5,6.89,3.84,13.66,5.3,20.55.62,2.94.58,7.69,1.33,10.21.16.56,1.89,2.27,2.44,2.59l2.72.27c1.52-2.15.09-7.09-.39-9.64-2.51-13.21-7.34-25.96-9.82-39.18,9.03-8.35,18.49-16.3,27.04-25.19,18.96-19.72,39.42-46.74,40.66-75.27.33-7.62-1.54-19.75-8.55-23.87.84-1.89,1.77-2.72,2.36-4.91,1.79-6.69.46-14.95-3.86-20.43,0-.67,5.07-1.83,5.77-3.26.73-1.51-.23-2.56-.11-3.71.07-.64.78-1.31.86-2.12.16-1.58-.82-2.21-.9-3.05-.17-1.83,2.79-3.27-1.13-5.91-1.01-.68-2.49-.6-2.99-1.77,1.99-.89,5.74-2.13,7.28-3.51.38-.34,3.44-4.64,3.56-5.01.55-1.7-.52-2.35-2.04-2.55-6.35-.83-10.77,2.3-16.33,4.54-.31-.31,3.35-5.93-2.38-6.91-3.93-.67-5.81,1.87-8.97,2.37s-12.25-.62-15.93-1.06c-30.36-3.58-64.89-17.19-80.21-45.26-1.13-2.07-3.78-5.87-2.14-7.84,24.65-21.51,52.66-50.48,61.7-82.84,7.74-27.74-1.49-51.25-31.52-30.02-31.41,22.2-48.77,65.61-40.75,103.3.49,2.29,3.08,8.28,2.01,10.03l-20.36,15.28c-15.43,10.04-32.56,18.52-50.2,24.09l-16.51,3.79c33.16-2.83,63.72-18.48,89.59-38.58,3.07,4.21,5.3,8.93,8.37,13.15,19.99,27.41,56.52,39.26,89.24,41,.59.51-2.7,3.96-3.11,4.67-.96,1.64-2.02,5.69-2.93,6.61-.29.29-6.6,3.72-7.16,3.89-.93.28-2.22-.27-3.04.34-.47.35-.34,1.3-.84,1.77-.76.72-2.53,1.28-3.06,2.02-.46.65.1,1.14.02,1.45-.11.41-.9.3-.98.66-.31,1.36,3.07,8.22,4.78,8.21,1.06,0,3.63-2.53,4.75-2.8.86-.21,1.73.49,2.53.08.94-.48.74-1.83,1.35-2.33.7-.57,2.72-.91,3.52-1.91l.66.15c2.35,4.41,16.34,18.98,12.83,23.91-2.07.76-4.16,1.4-6.15,2.39-8.93,4.41-16.05,18.47-22.03,26.65-9.06,12.37-19.78,25.87-31.32,35.94-1.11.97-8.59,6.9-9.26,6.76-1.3-1.2-.87-3.53-1.94-4.86-2.36-2.96-6.69-.88-5.86-6.88.27-1.94,7.46-9.35,9.13-11.97,7.19-11.26,2.44-22.19-1.14-33.74l.51-1.02c4.64-1.57,10.59-5.08,7.82-10.81-2.44-5.04-16.49-10.1-21.86-11.27-.96-.21-5.44-1.47-5.51,0,1,4.16,4.51,1.14,6.29,4.29l1.72-.52v1.51c1.28.56.94-1.04,1.25-1.01,1.61.15,1.18,1.92,1.27,2.02.13.15,1.17-.4,1.68-.34,1.77.21,8.46,3.97,10.23,5,.12.07,1.52,2.09,1.57,2.24.83,3.01-4.49,4.94-6.75,5.17-1.15.12-.21-1.48-1.7-1.02.12,1.89-.77,2.18-2.51,2.01,0,.79,1.51.57,1.34,1.76-.06.42-1.08,1.06-.84,1.24,2.22-.56,1.78,2.29,2.27,3.78.95,2.9,1.62,3.76,1.77,6.96,0,.14,2.01.92.73,2.32l-4.73-1.49-.58,2.16,1.48,1.11-.43,1.21c.88-1,5.59,1.24,5.91,1.62,1.08,1.26.56,8.2-.12,9.94-.53,1.36-1.59,1.36-1.71,1.58-.15.27.89,2-.84,3.41-.67.55-1.62.45-1.72.54-.07.06.65.8.04,1.74-.32.5-2.24,2.29-2.82,2.77-.8.66-1.93-.32-1.76,2.49-2.48-1.99-1.38.04-1.78.96-.65,1.51-1.72,4.67-2.7,5.09v.95s1,.28,1,.28l-1.03,2.25,1,.5c-9.74-.22-19.68-.31-29.11,1.01-.33-1.16.39-2.85.27-3.78-.07-.53-3.56-9.07-3.9-9.65-.19-.31-1.08-.37-1.41-.86s-2.47-3.74-2.43-3.97c4.12-4.24,6.78-8.89,7.82-14.76,2.04-1.35.58-.65.27-1.98-.21-.88-.13-1.76-.11-2.65-1.77-.05-4.3.61-5.95.2-1.09-.27-1.15-1.19-1.38-1.19-.42,0-.98.5-1.42.42-.54-.1-.56-1.07-.92-1.3-.76-.5-2.23-.41-3.53-1.64-1.4-1.32-1.32-3.73-1.44-3.91-.19-.27-1.1-.25-1.35-.92-.67-1.8.68-2.71.73-3.47.02-.29-.67-.67-.57-1.26.25-1.55,3.21-5.3,4.77-5.79,2.66-.84,2.06.92,3.02,1.52.38.24,1.37-.41,1.79.27l-.26,1.51c.65.14,1.38-.64,1.91-.42.33.14,4.78,5.01,3.11,5.94l1.5-1c.21.61.27,2,.64,2.38.18.18,4.33,2.12,4.67,2.14s3.39-.81,3.48-.96c-.34-1.22,1.58-4.51,1.57-4.8-.01-.33-.65-.75-.69-1.12-.34-3.72-2.08-10.32-3.81-13.52-.25-.47-2.2-1.76-2.22-2.92.02-.26,2.64-2.83,3.14-3.28.46-.4,1.45-.35,1.65-.59.41-.49-.24-2.7,1.61-2.4l-2.01,6.51,1.52.27.99,1.75.06-1.98,1.38-.07c-.31-2.78,1.14-3.28,2.6-4.85.28-.3.2-1.12.61-1.5.71-.65,8.6-2.68,5.07-5.13-1.63-1.13-5.52.39-6.95,1.48-1.29.97-1.66,2.81-3.26,3l4.6-7.19c8.37-13.2,6.39-38.1-12.89-39.48-23.36-1.66-26.67,28.34-35.11,43.67-7.95,14.44-23.08,23.24-17.47,42.04,4.62,15.46,22.57,30.45,38.64,20.31,4.2,1.61,7.92,9.85,8.11,14.15.07,1.53-.95,2.33-.94,3.78,2.64,1.02,4.74.03,7.25-.02,8.6-.16,16.68.31,25.2.84,2.37.15,3.96-.88,6.45,1.18.91.75,2.52,4.06,2.03,5.03-.73,1.41-11.1,7.2-13.28,8.84-.55.42-3.76,2.48-3.06,3.21,32.39-12.51,54.25-40.35,72.98-68.29l16.78-.54c.28-1.31.36-2.69-1.19-2.94ZM626.21,115.31l-29.33-55.5-2.52.31-51.68,26.11c-3.88,2.52-3.08,4.33-1.24,7.96,8.31,16.4,19.07,31.81,27.77,48.01,1.83,2.75,4.14,1.85,6.63.77,10.22-4.42,21.43-11.47,31.49-16.69,2.32-1.2,17.41-8.1,17.89-8.97.24-.44-.02-1.16.15-1.48.25-.5.78-.43.83-.52ZM664.64,77.63l-1.4-1.34-29.49,55.35c-.81,1.64-.06,3.87,1.45,4.8,16.11,7.65,31.66,17.41,47.68,25.1,1.05.5,3.28,1.75,4.34,1.5l2.05-1.99,26.54-50.28c.97-1.23-.52-2.68-.43-3.61.12-1.25,1.96-1.04-.86-2.86-15.17-9.81-34.36-16.99-49.88-26.66ZM401,87.33c.62-2.59.63-9.3-3.52-7.28-2.83,1.38-.64,7.6-4.29,7.74-20.3.02-40.52.83-60.78,1.37-7.24.19-17.53-.65-24.38.32-.76.11-1.56.38-2.18.86l3.77,89.53-15.04,5.57-12.21,2.81-.73.77.96,4.67c1.57,1.32,23.66-5.93,27.05-6.98l1.51,24.09,9.03.22c1.5,3.14,4.11,5.21,6.88,7.21,1.15.83,7.09,5.06,8.19,3.6.17-.96-.65-1.45-1.26-1.99-2.61-2.32-10.21-6.38-11.07-9.54-.55-2.02,1.69-2.98,3.3-2.29,1.91,1.93,5.62,7.12,7.75,8.33.98.56,1.7.58,2.79.47,1.4-1.39-5.25-6.79-6.28-8.02-.83-1-3-3.48-2.69-4.67.16-.61,2.69-2.32.66-2.86-2.71-.71-4.21,3.99-2.73,6.01-3.68-1.5-7.06,1.96-10.82.04l-.98-22.12c9.21-4.3,18.25-8.8,26.72-14.44,1.2-.8,10.66-8.2,11.18-7.64.27,12.03.33,24.21,1.51,36.13l1.92-.58-.82-38.21c12.18-11.58,23.7-23.9,32.27-38.49l13.72-.92c2.98,10.65,7.46,21.52,16.13,28.78,6.72,5.62,15.81,8.04,24.51,7.86.98.6,3.33,13.72,3.54,15.79.42,4.15,1.8,14.4-4.24,14.7-.46.02-2.9-.4-3.12-.56-.63-.47-.6-3.73-1.44-3.94-4.37-1.08-4.58,4.63-2.68,7.3,2.79,3.93,8.79,3.96,12.51,1.47,9.06-6.05,1.94-26.69.54-35.35l22.09-1.51,2.01,38.39,1.23,3.18,2.05-.9.26-1.25-2.04-39.93,57.19-4.99,2.03,28.08c-1.98-.89-8.21-8.26-9.71-7.95-1.74.85-1.09,1.68-.31,3.06,2.55,1.77,8.98,12.45,11.29,12.91,4.86.96,4.73-2.85,4.94-6.45.3-5.03-.98-10.29-1.21-15.34-.12-2.56-.52-12.65.11-14.49.21-.61.54-.81,1.17-.84l11.32-.8,9.5,47.47c-.35.47-5.24-5.43-8.57-2.3-.96.9-.96,2.42-1.98,3.03-6.19,3.69-12.8-5.98-18.81-1.75l-.54,3.57-15.72,1.9-9.11-44.09-2.99-.03,9,47.46,17.6-1.06c2.53,2.29.4,3.74.5,5.5.21,3.75,7.03,7.27,9.53,9.58-1.96.71-6.09-.87-6.07,2.51.01,2.63,6.63,5.63,8.9,6.7s10.61,4.64,12.5,4.62c1.49-.01,1.72-.8,2.24-2.04-1.18-.12-2.72-.44-3.72-1.06-.63-.39-.73-1.29-.86-1.38-.15-.1-1.06.49-1.64.41-2.85-.41-5.88-2.93-8.82-3.52l.48-.96c-2.24.81-3.83-1.72-6.02-2.02l.26-1c2.54.92,5.49,1.25,8.02,1.97s4.54,3.3,6.69.3c.11-1.35-3.65-2.92-4.8-3.62-1.63-1-4.83-2.36-4.69-3.59-.42.06-.8.22-1.21-.03-1.24-.75-9.84-6.49-8.27-8.07,2.94.4,4.99,2.44,7.45,3.84,1.8,1.03,3.79,2,5.95,3.07,1.52.75,2.44,2.02,4.41,2.14.79.04.87.08.75-.76-.57-2.03-4.56-3.22-6.21-4.35-3.46-2.38-4.56-3.43-8.33-5.18-1.37-.63-4.78-2.13-4.53-4.02.29-2.11,1.01.07,1.08.09,6.55,2.17,10.98,6.27,16.87,9.17.38.19,3.49,1.14,3.63,1.01-.07-3.03-1.06-1.95-1.76-2.46-.75-.55-1.19-1.88-1.33-1.96-.22-.13-3.32-1.19-4.08-1.65-4.15-2.52-8.27-5.35-11.95-7.63-2.24-1.39-1.77-2.44.66-2.25,1.2.09,5.7,1.21,4.91,2.9,2.04-1.29,1.99.26,2.12.3,5.95,2.15,8.35,4.87,13.33,7.68.39.22,3.65,1.58,3.85,1.55,1.31-.19.04-1.94-.16-2.34-1.44-2.78-4.06-5.98-5.79-8.68l.21-2.02c3.12-.59,2.87,1.56,4.17,2.84,1.49,1.46,2.71,3.47,2.92,3.62,3.26,2.35,5.82,7.45,7.41,11.49.37.95.35,2.06,1.04,2.89l-.98.24-.02.99,1.24-.04c.18,2.52,2.32,5.33,1.26,7.56h1.51c-2.04,5.27,1.05,3.22,3.89,4.4,3.1,1.28,9.6,12.22,11.57,15.53,6.92,11.59,13.7,24.93,19.61,37.1,2.33,4.81,9.19,17.66,9.51,22.18.11,1.62-1.12,3.08-1.36,4.92-.85,6.67,3.26,13.3,2.68,18.84-.4,3.79-4.29,12.1-5.6,16.38-1.48,4.85-3.33,10.25-4.43,15.14-.64,2.85-2.73,8.69.53,10.02,1.78-.18,4.81-17.98,5.91-20.65l4.87-14.94,9.07,42.38c.54,1.99,1.66,4.14,3.98,4.29,0-1.71.11-3.43-.13-5.14-2.62-19.32-8.97-38.13-11.83-57.43-.61-4.13-1.68-7.54-.23-11.61,1.65-4.62,1.89-2.01,4.19-.39.82.57,1.75.85,2.63,1.3.32.16.36.87.43.89.22.08.88-.38,1.56-.27.42.07.73.62,1.41.63.62,0,4.59-1.25,4.47,0-.07.76-10.6,9.22-10.52,11.04.02.36,1.09,1.05,1.64.65,5.2-3.97,10.02-8.42,15.18-12.43,10.91-8.47,27.28-17.57,32.59-30.64,1.09-2.69,1.92-8.55,2.86-10.19.56-.97,4.18-2.74,5.43-4.6,2.29-3.42,2.43-7.83,1.02-11.57-.55-1.45-2.45-3.6-2.54-4.52-.07-.77,2.38-6.39,2.77-8.25,1.97-9.32,1.23-23.03-9.15-26.99-1.3-.5-4.36-.84-5.02-1.26-.47-.3-1.08-2.16-2.16-2.61-1.87-.79-4.13-.09-6.04,0-2.11-6.1-7.75-5.94-12.74-3.25-4.34-8.53-12.77-3.73-18.19.89-7.91-5.5-15.96.74-20.58,7.29-.25.35-.18.89-.16,1.32-9.68-4.31-17.89,4.89-22.48,12.4-.97,1.58-1.57,3.46-2.5,5.03-.18.3,0,.98-.85.64-.43-.17-3.08-3.41-4.31-4.23-.95-.63-3.25-1.25-3.52-1.62-1.38-1.82-4.39-13.38-6.05-16.92-.87-1.85-1.93-3.78-3.03-5.5-1.76-2.74-4.44-3.58-2.51-6.96l-9.04-49.26c-1.23-1.17-1.8-2.3-3.67-2.37-1.76-.07-11.83,1.5-12.28,1.03-.25-3.4-.27-6.85,0-10.28.24-2.93,2.92-14.89,1.42-16.75-.17-.21-1.92-.4-2.44-.59l.5-.98c-1.09-.21-1.78-.88-2.79-.07-3.2,2.58-3.25,24.43-4.02,29.22l-57.1,4.89-4.31-64.95-66.78,1.28ZM739.69,140.15c-35.84.87-56.59,41.62-36.67,71.51,21.62,32.43,71.95,23.89,82.06-13.52,7.97-29.48-14.93-58.73-45.4-57.99ZM402.84,179.35c-1.22-1.42-3.56-2.98-4.36-4.94,0-1.27,5.93-6.72,6.67-8.41,1.1-2.5-.52-3.82-2.48-2.22-.99.81-6.17,8.37-6.92,8.36-2.14-1.37-5.91-6.9-7.78-7.77s-3.12.39-2.25,2.25,7.39,6.25,7.69,8.38c-.02.7-.56,1.24-.95,1.77-1.09,1.5-7.14,6.81-4.5,8.7,2.6.76,6.74-8.13,8.26-7.79,3.26,2.87,5.86,8.91,10.83,8.01.95-.92-3.38-5.41-4.19-6.35ZM460.73,212.8c.72.81,5.29-4.94,5.72-5.56,1.56-2.23,6.32-9.88,2.69-11.64-4.92-2.38-10.11,5.25-12.93,8.42l-9.06.49c-2-7.86-7.27-8.48-9.26-.24l-.58.42-67.13,1.61c-2.54-7.09-6.99-.25-9.7.36-3.48.79-8.32-.56-11.96.38-5.11-2.46-8.7-9.87-15.03-9.33-2.06.18-3.47,1.5-3.17,3.67s8.29,11.78,10.18,11.41l.7-1.18c-2.19-3.91-6.93-6.27-7.97-10.86,1.31-1.18,7.35,3.74,8.54,4.76,2.36,2.02,9.71,10.7,12.28,10.74,4.61.08,8.66-9.59,13.31-10.48.15,5.3-3.67,9.7-5.25,14.57-5.81,17.9,4.26,60.04,9.41,78.88.56,2.06,3.98,14.68,5.13,14.95,2.46.58,1.65-9.3,1.76-10.78.44-6.27,1.22-12.58,1.73-18.85.7-3.32,7.62,1.48,6.48-2.99l-5.13-1.74c3.58-9.63,10.4-18.47,19.97-22.64,1.21-5.19-.15-11.16,2.54-16.04,1.25-.61,2.29-.04,3.23.82,2.18,1.99,6.88,11.8,7.82,12.25,1.64.8,4.23-.34,6.26-.26,4.72.19,10.87,2.61,14.56,5.54,1.14.91,5.36,5.15,5.78,6.27s-.73.65-1.26.72c-17.3,2.37-31.55,10.75-42.89,23.87-10.1.4-1.65,2.74.71,6.3,5.11,7.71-2.72,16.55-11.25,13.51-7.11,31.87,12.44,70.18,45.54,77.16,12.61,2.66,31.15-.04,41.1-8.58.8-.69.83-2.29,2.68-1.84l2.01,12.04c-2.82-.03-6.03-1.33-8.72.07-1.78.92-7.71,10.02-4.08,9.99,1.75-.01,4.14-5.69,6.14-6.47l7.18,1.16c1.07.83,2.49,21.21,6.76,23.35,1.45.01.34-8.86.18-10.21-.77-6.35-6.36-32.23-5.22-35.98.75-2.47,3.71-6.45,4.81-9.74,6.98-20.7-8.68-42.12-18.51-59.84-5.7-10.27-11.91-20.28-17.66-30.52-.17-.79-.06-.81.66-.66,3.05.6,7.72,1.65,10.65,1.9,1.29.11,3.03.16,4.26-.24-4.65-5.43-12.28-4.79-18.72-5.74-4.37-7.29-11.21-12.9-19.72-14.53-3.55-.68-7.13-.12-10.66-.63-1.21-3.19-5.63-12.08-8.97-12.86-8.29-1.92-7.7,11.66-9.13,16.72-10.78,5.56-18.76,17.18-20.54,29.17-.87,5.87-.54,11.86-1.34,17.73-.69-.49-.79-1.26-1.02-1.99-5.36-17.04-13.3-53.27-11.72-70.46.65-7.13,4.44-12.7,6.52-19.33l68.2-1.57c-.09,5.25-.51,10.41-.35,15.66.18,5.95.68,13.31,1.36,19.21.31,2.68.97,9.13,1.73,11.32.56,1.6,2.02,2.34,2.15.11.09-1.59-1.27-11.13-.88-11.67,5.34,2.86,21.05,4.78,24.01,9.86,1.3,2.23,2.44,9.8,2.88,12.72.14.92-.17,1.71-.06,2.52.77,5.33,1.39,10.71,2.27,16.04-1.6-.05-2.89-.99-4.51-.24-1.25.58-6.55,6.34-2.38,5.69,2.19-.34,3.3-4.22,7.14-.94,1.39,7.58,1.76,15.59,3.5,23.1.22.95,1.31,6.37,2.76,5.51-1.43-19.63-3.03-39.33-5.65-58.84-1.35-6.4-3.09-10.17-9.43-12.76-.17-5.09-1.17-10.38-.02-15.39,4.61-1.81,23.68-4.74,23.5-11.54-.14-5.42-11.39-1.62-14.42-.84l7.64-10.17.38-3.38c-.45.06-1.12-.14-1.44.06-.23.14-1.77,3.62-2.58,4.69-1.85,2.44-8.9,8.17-7.97,10.98.76,2.28,9.29-.76,11.32-1.1.73-.12,3.52-.94,3.67.17.13.92-4.43,3.21-5.39,3.63-3.71,1.62-15.09,3.83-16.96,6.13-2.77,3.39-.21,11.02-.72,15.35-.08.68.26.91-.7.69l-17.35-4.49-1.55-21.29c-.04-2.94.32-15.81,1.77-17.34,2.06-2.18,2.86,2.53,3.13,3.91.54,2.67.15,10.93,4.28,10.08,3.64-.75,10.14-11.68,13.4-14.75.88-.83,5.02-4.21,6.04-3.24.72,3.08-9.1,13.26-7.52,15.05ZM462.23,217.31c2,1.56,9.29-7.67,10.45-9.37.9-1.33,4.76-7.15,2.35-8.18-1.76-.76-1.62,2.31-2.16,3.36-2.72,5.28-7.72,9.04-10.64,14.2ZM83.2,210.91c-2.73.29-6.55,2.86-7.63,5.44-2.57,6.19,2.86,11.63,8.3,13.7,7.43,2.82,19.26,1.27,16.66-9.13-1.51-6.03-11.61-10.63-17.33-10.01ZM333.75,303.64v-14.3c0-.27.75-2.8,1-3.02l27.1-10.53c-1.22-1.52-3.46-.38-5,0-7.54,1.89-15.07,5.64-22.59,7.77.42-5.77-.42-19.43,2.78-24.07,2.08-3.01,15.28-5.73,19.64-7.97,1.18-.6,2.59-1.06,2.17-2.59l-13.05,3.01c-.89-4.39.26-16.59-3.15-19.43-3.08-1.85-20.67-6.92-21.38-9.5-.97-3.54,6.6-.43,7.66-.71l.8-1.22c-3.14-3.14-13.55-3.27-10.78,3.25,1.91,4.5,17.19,7.08,20.85,10.77,3.05,3.09,1.35,13.24,2.43,17.52-2.93,1.96-6.11,2.14-8.09,5.49-3,5.07-3.58,20.79-3.93,27.18-2.4,43.4.2,86.65,1.91,130.14.04.96-.47,1.92-.42,2.87.31,5.72,6.11,6.5,6.09-.5-.01-4.82-.91-10.65-1.06-15.53-.12-3.82.19-5.01,2.77-7.81,4.46-4.82,3.96-.96,8.54-.96,2.92,0,3.06-1.94.92-3.48-.46-.33-6.06-2.61-6.4-2.6-2.32.11-3.87,3.38-5.17,4.89-.31.36.02.95-1.15.64-1.62-28.5-3.14-56.92-2.5-85.56.3-1.51,4.05-3.59,5.36-4.71,1.26-.19,6.19,6.67,8.21,2.19-.87-1.68-6.24-6.35-7.83-6.23l-5.74,4.98ZM560.5,234.29c.35-.62.18-1.77-.4-2.2-3.47-.5-1.89.11-2.3.79s-2.74,1.83-3.65,3.33c-5.29,8.68.18,23.53,2.79,32.58-7.16,3.59-6.18,12.92-7.46,19.71-8.71.88-8.42,14.84-6.58,21.05,3.94,13.25,20.89,20.4,31,9.15l.7.8c7.08,20.48,13.82,41.06,19.8,61.9,2.82,9.83,5.67,28.35,10.76,36.52.64,1.03,1.62,1.22,1.88,1.63.3.48-.94,1.94.48,1.52.37-.11,1.53-.82,1.6-1.21.19-1.11-1.05-5.98-1.39-7.51-8.36-38.09-21.97-75.45-34.84-112.21-4.66-13.3-10.88-27.04-14.65-40.55-1.65-5.93-4.53-16.96-1.07-22.36.83-1.3,3.22-2.74,3.33-2.93ZM156.59,237.39c-1.33-.43-.81.74-1.36.98-.76.33-3.77.71-3.91.99-.16.33.23,1.01,0,1.51-.5,1.06-3.34,3.59-3.68,4.14-.09.15.43,2.71-.07,3.41,1.36.36.72-.62,1.37-.98.41-.23,1.46.12,1.91-.5.16-.22-.27-1.02,0-1.5s2.15-2.88,2.48-2.93c1.97-.3,1.2,2.41,1.38,2.76.18.37,2.56,2.27,2.41,3.64l2.76-1.51c.38-.61-.53-5.33-.87-6.16-.58-1.4-3.62-1.53-2.4-3.87ZM740.78,250.43c6.02-4.24,9.33-9.91-1.63-8.4-9.74,1.35-21.7,8.14-24.07,18.34-12.45,3.32-23.29,12.26-33.68,19.76-6.3,4.55-12.47,9.28-18.67,13.96l-1.49-1.5c-1.24.3-1.62,6.6-2,8.04-3.23,12.31-14.58,22.38-23.53,30.92-2.59,2.47-10.27,7.8-10.87,10.96-.16.83.04.82.77.78,3.98-.21,10.82-7.96,14.04-10.55,3.96,9,8.04,18.98,10.56,28.57.22.85.1,2.71.31,2.96.34.41,4.24,1.94,3.95-.17l-12.46-33.06c9.21-9.63,18.86-19.11,20.52-33.15,14.88-8.48,28.43-21.95,43.61-29.67,16.24-8.25,22.15,4.77,17.59,19.1-4.86,15.27-17.84,29.67-28.86,40.9-1.94,1.98-9.48,7.49-9.3,10.27l5.2-1.68c4.38,3.1,8.41,6.45,12.58,9.77,9.09,7.24,24.1,18.84,28.75,29.7,4.88,11.39,2.24,20.21-5.61,29.23-.85.98-2.15,1.28-2.99,2.53-1.01,1.51-1.71,3.93-.5,5.52,1.96.54,5.65-2.11,7.18-3.35,15.91-12.86,12.33-34.22.06-48.14-9.88-11.22-22.89-20.43-34.63-29.6,6.57-6.28,13.16-12.66,18.76-19.88,8.1-10.43,17.14-25.81,15.34-39.29-.05-.34-.8-.31-.82-.41-.11-.47.33-1-.02-1.74-1.89-4.02-5.43-9.22-10.19-9.7.88-9.41,12.5-14.51,20.59-16.34.69-.16,1.28.11,1.75.04.18-.03,2.59-1.63,1.75,0-.78,1.5-4.41,2.54-5.62,3.29-.54.33-.62,1-1.24,1.37-.9.54-5.79,2.59-6.18,3.13,1.25,4.23,7.77-.54,10.75,1.01l.29-1.01c1.55-.48.48.94,1.5.99l.26-1.51,1.47.53c.47-1.46.74-.56,1.41-.73,6.27-1.61,12.39-4.04,18.94-4.31.25,1.19-.22.93-.96,1.34-4.45,2.44-9.37,5.4-14.6,6.03l-5.02,2.92c1.49.8,3.21,1.01,4.74.23l.77,1.03c-.14-1.33,1.32-1.2,2.34-1.42,2.71-.58,5.72-.47,8.42-1.09l.79,1.01c.04-2.25,4.28-.2,6.03-1,.68,2.27-2.69,1.51-3.43,3.35-1.22,3.03,2.88,1.12,3.43,2.43.29.7-1.99,1.81-2.5,2.03-.3.13-1.73.69-1.84.71-.4.09-5.08.5-5.47.47-.8-.05-1.49-1.13-1.71-.96-.06.05.14.84-.32.98-.37.11-2.15-.33-2.93-.21s-1.79,1.15-2.55,1.07c-.24-.03-2.95-2.4-3.92-2.93-3.59-1.99-9.5-3.34-13.58-2.91-.4.04-.34.87-.65,1-2.16.91-4.2.8-5.18,3.5,1.95,1.06,2.8-.55,4.34-.85.77-.15,1.85,1.15,1.69-.64h.99s.5.99.5.99c.15-2.62,4.58-1.18,6.43-.66,3.17.89,5.87,3.15,8.39,5.17,2.05-.57,5.66-.21,7.53-.61.31-.07.04-.83.96-.94,1.36-.16,3.05.18,4.48.03l.82,1.01,1.01-1c-.79,3.09-3.36,2.27-5.02,2.84-4.94,1.69-10.62,4.45-15.84,3.73l-.51,1c-1.87-.47-3.66.54-6.05.94-1.5.25-3.99-.83-4.21,2.27.46,2.43,11.17.06,13.16-.39,4.28-.97,17.87-5.08,20.48-8.13,1.62-1.89.44-3.25.74-3.8.28-.51,2.48-1.35,3.01-2.49.77-1.7-.25-2.59-.19-3.78.07-1.27,1.86-1.76.48-4.02-1.55-2.56-6.04-1.54-8.56-1.73,1.66-1.88,7.34-3.78,6.33-7.03-.93-3-6.07-2.22-8.46-1.87-5.83.86-12.21,3.38-17.94,4.89ZM561.96,243.48c-2.04.56-2.21,4.91,1.3,3.85,2.42-.73,1.42-4.61-1.3-3.85ZM168.13,246.43h-1.5v1h1.5v-1ZM578.79,254.83c2.38,2.36,6.22-1.18,3.17-3.43-2.29-1.69-5.25,1.37-3.17,3.43ZM459.1,259.86c2.51-2.5-1.75-7.97-4.43-4.18-2.47,3.48,2.07,6.54,4.43,4.18ZM427.43,260.16c.21.13,3.08,3.37,3.67,1.04.68-2.64-5.18-5.61-7.3-5.71-5.06-.24-8.72,6.02-6.74,10.51l2.42-.59c.09-5.18,2.81-8.46,7.95-5.25ZM401.46,273.48c1.04-2.51-.17-6.1,2.36-7.92,4.24-3.05,7.36,2.26,8.96,1.95,2.35-.46-.97-3.7-1.78-4.23-7.37-4.86-13.41,2.28-11.79,9.78l2.24.42ZM344.15,265.06c-3.12.81-3.06,6.17.32,5.85,4.1-.38,3.25-6.78-.32-5.85ZM686.92,273.38c.82-1,.9-1.98-.07-2.89-1.05-.99-8.26-4.89-9.31-3.99-.33,2.29,6.49,4.28,6.51,5.27l-4.26,3.75c-1.29,0-.91-7.87-3.76-7.52-.29,1.66,1.05,10.12,2.32,10.5,1.34.4,7.69-4.08,8.56-5.13ZM573.53,273.15c-2.28-2.31-5.62,1.85-2.57,3.84,2.6,1.7,4.33-2.05,2.57-3.84ZM247.16,275.72c-.58.33-.61.36-.73,1.06-.36,2.1,1.85,16.03,2.64,18.44,1.01,3.05,3.68,3.15,3.7-.27.02-2.65-2.12-14.84-2.97-17.52-.38-1.2-1.29-2.49-2.64-1.71ZM719.05,275.62c-3.74,1.12,1.09,7.01,2.8,2.77.79-1.96-.82-3.36-2.8-2.77ZM594.08,278.62c-2.35.66-1.44,5.15,1.3,4.37,2.35-.66,1.64-5.19-1.3-4.37ZM699.48,278.64c-2,.6-1.79,3.61.43,3.93,3.62.52,3.2-5.02-.43-3.93ZM218.17,309.51l10.49-20.42-.02-1c-.83-1.17-2.28-1.5-3.33-.28l-9.62,18.49c-.45,1.62.68,4.86,2.48,3.21ZM145.54,292.1h-1v1.5h1v-1.5ZM677.59,294.15c-1.2,2.59,2.37,5.3,3.28,1.71l-.55-1.26-2.73-.45ZM637.89,317.18c.54.44,3.07-1.23,3.67-1.6,3.36-2.11,12.99-11.67,15.11-15.01,1.34-2.11.23-3.32-1.67-1.67-3.98,3.44-10.4,9.81-13.85,13.76-.4.46-3.47,4.34-3.25,4.52ZM582.56,302.73c-3.72.76-1.51,5.86,1.78,4.84,2.57-.79,2.05-5.63-1.78-4.84ZM701.57,307.22l-3.71.93-.3,1.26c0,2.33,2.87,2.84,4.33,1.26l-.33-3.45ZM604.6,309.24c-1.76.62-1.65,4.36.92,4.49,4.46.22,3.27-5.96-.92-4.49ZM80.87,358.94c13.04-7.74,27.06-14.6,39.04-23.98,1.83-1.43,7.01-5.51,7.83-7.23,1.02-2.15,3.13-14.52,2.03-16.1l-2.27-.45c-.56.46-1.83,12.12-2.57,14.25-.79,2.3-8.17,7.34-10.55,9.02-20,14.1-46.03,24.46-64.31,39.46-6.68,5.48-12.82,13.39-10.93,22.56-7.42-2.06-15.65-1.2-22.85,1.5-3.32,1.25-11.21,5.07-9.02,9.55,1.39,2.85,9.71-.88,12.09-1.53l.95,1.02.51-.5c-.63-1.35,1.01-1.47,2.22-1.49l.41,1.38-4.6,2.16-.31-1.03h-1c.34,1.73-.52,1.39-1.79,1.98l-.46-.98-2.02,1.51-.52-1.03-3.23.53c1.23,3.03,2.64,3.28,5.72,2.95,2.18-.23,3.88-1.91,5.82.06l.04-1.46c2.29.44,6.61-3.09,6.49.95l-2.51-1,.5,1.5c-3.59-.34-7,2.86-10.22.56-3.92,3.28,3.82,4.03,6.2,2.96.36.34-4.27,6.28.8,7.02,4.05.59,9.89-3.96,13.76-5.01.29.28-2.94,4.09.55,6.22,4.61,2.81,12.78-4.34,15.84-7.65,3.81,1.74,7.23,3.94,11.54,4.38,10.57,1.09,23.97-11.35,32.3-17.01,1.17,1.51-7.64,13.76-7.8,16.52-.01.25,1.32,4.36,1.52,4.58,1.13,1.22,3.35-1.35,3.88-2.16,3.09-4.67,7.48-15.01,9.67-20.45.85-2.13,2.96-6.94,3.21-8.91.09-.7-1.33-.81-1-2.04-1.28-.36-2.37.02-3.44.69-4.88,3.05-10.82,10.02-15.84,13.77-10.4,7.77-20.64,14.4-32.37,4.78-8.28-6.79-14.63-17.58-7.44-27.52,6.91-9.55,20.18-15.43,29.79-21.91,1.2-.37.81,2.49.76,3.28-.14,2.74-2.17,15.32-.93,16.69l2.19.16c.77-.65,1.07-4.04,1.23-5.33.71-5.64.82-11.55,1.07-17.22ZM662.05,315.62c.8,1.29,4.56.43,3.68-1.96-1.17-3.2-5.12-.35-3.68,1.96ZM194.04,312.71c-1.24.4-.84,3.99-.83,5.26.01,4.2.45,11.92,1.06,16,.39,2.62,3.64,5.51,4.01,2.06.71-6.66-1.73-14.76-1.54-21.59-.15-1.29-1.47-2.13-2.69-1.73ZM370.77,323.59c.17-.16.53-.96.5-1.14-.19-1.28-9.03-4.6-10.56-4.19-1.88.51-5.23,11.51-1.62,11.5,2.66,0,2.56-5.74,3.29-7.54,1.15-.82,5.92,3.63,8.39,1.37ZM678.9,322.28c-1.64.46-2.16,3.62-.09,3.96,3.58.59,3.26-4.86.09-3.96ZM137.47,331.79c-2.58-.3-3.17,0-2.85,2.58.81,6.59,4.29,14.26,5.03,21.09.7,1.2,1.82,2.6,3.38,2.38l-5.56-26.05ZM595.55,332.35c-2.16.4-1.74,5.19,1.33,4.34,2.41-.67,1.62-4.89-1.33-4.34ZM651.77,333.86c-2.54.24-2.98,3.54-.56,3.93,3.5.56,3.59-4.22.56-3.93ZM347.18,347.38c-1.36.23-11.02,5.6-5.74,6.85l5.54-2.37c1.19.35,2.68,5.83,6.06,4.96,1.55-.4-.86-4.35-1.32-5.15-.95-1.69-2.39-4.65-4.54-4.28ZM669.85,348.37c-2.33.78-1.29,5.93,2.18,4.2,2.14-1.07.94-5.24-2.18-4.2ZM165.96,353l-1.61.81c-.97,2.51,1.15,3.03,3.16,3.39,5.92,1.07,12.47.86,18.42,2.13,4.66-1.91,3.01-3.71-1.11-4.38l-18.86-1.96ZM645.42,356.34c-.97-.15-1.33.39-1.5,1.26-.57,3,1.14,6.87,1.74,9.8l2.27.49-2.51-11.54ZM694.46,356.41c-2.11.49-3.47,5.67.87,4.94,3.02-.5,2.16-5.64-.87-4.94ZM614.8,370.39c1.07-1.52,3.23-9.94,1.25-10.53-2.88-.87-4.92,9.54-1.25,10.53ZM641.37,370.86c.94-1.9.2-3.49-.34-5.37-.15-.53-1.48-5.22-2.64-4.13.05.77-.4,1.51-.4,2.25,0,1.34,1.19,8.67,3.38,7.26ZM633.63,364.37c-1.92.44-1.62,10.4,1.49,10.03,1.37-.42.15-7.55-.27-8.75-.23-.66-.25-1.37-1.22-1.28ZM102.48,368.8l23.77,4.12c1.77-.45,4.66-1.64,2.08-3.14-1.71-.99-20.82-4.26-23.71-4.42s-3.34.77-2.14,3.43ZM386.45,370.38c-1.58-3.76-7.54-4.55-11.21-5.04-.53.13-4.32,9.42-4.15,10.07.13.51.61,1.27,1.13,1.44l1.69-.18,3.31-7.33c3.47.5,5.68,2.98,9.22,1.04ZM652.07,370.51c-2.08,2.06,1.41,5.72,3.43,3.19s-1.39-5.2-3.43-3.19ZM717.02,370.46c-1.62.54-2.05,4.11.45,4.46,4.07.57,3.42-5.74-.45-4.46ZM157.47,372.02c-1.95-1.64-2.77.74-3.25,2.28-2.29,7.32-3.07,15.6-5.47,22.94.13.99,1.71,3.9,2.86,2.46l6.27-25.78c.12-.58.04-1.52-.41-1.9ZM611.11,376.47c-2.24.76.03,5.93,2.69,3.71,1.61-1.34-.04-4.61-2.69-3.71ZM680.93,380.8c1.95-5.74-5.39-5.89-4.32.06,1.35.69,3.01.85,4.32-.06ZM707.03,390.84c1.88-1.88-.71-5.92-3.37-3.62s1.21,5.77,3.37,3.62ZM394.03,398.45c1.59,1.08,6.01-4.01,7.73-4.49,1.65,0,4.87,6.51,7.78,3.27-1.2-2.68-4.58-6.94-7.77-6.8-1.61.07-8.16,4.44-8.3,5.82-.07.7.36,1.52.56,2.2ZM637.01,395.86c2.44,2.46,4.94-2.51,1.9-3.63-1.94-.71-3.51,2-1.9,3.63ZM84.07,398.49h-24.59c-1.3,0-1.23,2.85,0,3.51h24.09c.13,0,1.17-.52,1.28-.84l-.78-2.67ZM665.35,398.59c-1.79.54-1.88,3.02-.32,4.14,4.29,3.08,6.05-5.86.32-4.14ZM128.62,422.44l3.39.41c.75-.44-.15-2.03-.43-2.61-1.19-2.45-8.33-13.09-10.14-14.95-1.41-1.45-1.88-1.71-3.46.04l10.64,17.12ZM439.8,413.39c1.63,1.26,4.71,2.06,5.32-.52-.09-.49-6.6-6.13-7.35-6.27-3.25-.59-9.74,8.42-9.16,8.95,3.11,1.02,5.65-4.52,7.38-4.96s3.05,2.21,3.82,2.8ZM622.19,409.12c-2.27.66-2.75,4.41-.09,4.92,5.53,1.07,4.29-6.14.09-4.92ZM169.79,422.94c.31.37,1.27.58,1.6,1.14,1.13,0,2.45-10.33,2.28-11.81-.23-1.96-1.16-2.52-2.07-.52-.49,1.08-2.21,7.46-2.38,8.7-.12.93-.05,1.73.57,2.48ZM368.51,411.17c-.86.82-4.46,9.44-1.17,9.68,2.41.5,2.99-4.69,4.04-6.09,1.04-.74,8.2,2.72,9.02-1,.4-1.82-8.69-3.35-10.22-3.19-.53.05-1.29.24-1.67.6Z"/>
      <path d="M460.73,212.8c-1.58-1.79,8.25-11.97,7.52-15.05-1.02-.97-5.16,2.41-6.04,3.24-3.26,3.07-9.75,14.01-13.4,14.75-4.13.85-3.75-7.41-4.28-10.08-.28-1.38-1.07-6.09-3.13-3.91-1.45,1.53-1.81,14.4-1.77,17.34l1.55,21.29,17.35,4.49c.96.22.62-.02.7-.69.51-4.33-2.05-11.95.72-15.35,1.87-2.3,13.25-4.51,16.96-6.13.97-.42,5.52-2.71,5.39-3.63-.15-1.1-2.94-.29-3.67-.17-2.03.34-10.56,3.38-11.32,1.1-.93-2.81,6.11-8.54,7.97-10.98.82-1.07,2.36-4.55,2.58-4.69.32-.2.99,0,1.44-.06l-.38,3.38-7.64,10.17c3.03-.78,14.27-4.58,14.42.84.18,6.8-18.89,9.73-23.5,11.54-1.15,5.02-.15,10.3.02,15.39,6.35,2.58,8.08,6.36,9.43,12.76,2.62,19.51,4.22,39.21,5.65,58.84-1.46.86-2.55-4.56-2.76-5.51-1.74-7.51-2.11-15.52-3.5-23.1-3.84-3.28-4.96.6-7.14.94-4.18.65,1.13-5.11,2.38-5.69,1.62-.75,2.9.19,4.51.24-.88-5.33-1.5-10.71-2.27-16.04-.12-.81.2-1.6.06-2.52-.44-2.92-1.58-10.5-2.88-12.72-2.96-5.09-18.67-7-24.01-9.86-.39.55.97,10.08.88,11.67-.13,2.23-1.59,1.49-2.15-.11-.77-2.19-1.42-8.63-1.73-11.32-.68-5.91-1.18-13.26-1.36-19.21-.16-5.25.26-10.41.35-15.66l-68.2,1.57c-2.07,6.63-5.86,12.2-6.52,19.33-1.58,17.19,6.36,53.42,11.72,70.46.23.73.33,1.5,1.02,1.99.79-5.87.46-11.86,1.34-17.73,1.78-11.99,9.76-23.61,20.54-29.17,1.44-5.07.85-18.65,9.13-16.72,3.34.78,7.76,9.67,8.97,12.86,3.53.51,7.11-.05,10.66.63,8.51,1.63,15.35,7.25,19.72,14.53,6.44.96,14.07.31,18.72,5.74-1.22.4-2.97.35-4.26.24-2.93-.26-7.6-1.3-10.65-1.9-.72-.14-.82-.13-.66.66,5.76,10.24,11.96,20.26,17.66,30.52,9.83,17.71,25.49,39.13,18.51,59.84-1.11,3.28-4.07,7.27-4.81,9.74-1.14,3.74,4.45,29.63,5.22,35.98.16,1.35,1.27,10.23-.18,10.21-4.27-2.13-5.68-22.52-6.76-23.35l-7.18-1.16c-2,.78-4.38,6.46-6.14,6.47-3.63.03,2.3-9.07,4.08-9.99,2.69-1.4,5.9-.09,8.72-.07l-2.01-12.04c-1.86-.46-1.88,1.15-2.68,1.84-9.95,8.53-28.49,11.24-41.1,8.58-33.1-6.99-52.66-45.29-45.54-77.16,8.54,3.03,16.36-5.81,11.25-13.51-2.36-3.56-10.81-5.9-.71-6.3,11.34-13.12,25.59-21.5,42.89-23.87.54-.07,1.68.37,1.26-.72s-4.64-5.36-5.78-6.27c-3.69-2.93-9.84-5.35-14.56-5.54-2.03-.08-4.61,1.06-6.26.26-.94-.46-5.64-10.27-7.82-12.25-.93-.85-1.97-1.43-3.23-.82-2.69,4.89-1.33,10.86-2.54,16.04-9.57,4.17-16.39,13.01-19.97,22.64l5.13,1.74c1.14,4.47-5.78-.33-6.48,2.99-.51,6.27-1.29,12.58-1.73,18.85-.1,1.49.71,11.36-1.76,10.78-1.15-.27-4.57-12.89-5.13-14.95-5.14-18.85-15.21-60.98-9.41-78.88,1.58-4.88,5.4-9.27,5.25-14.57-4.64.89-8.7,10.57-13.31,10.48-2.57-.05-9.92-8.72-12.28-10.74-1.19-1.02-7.23-5.94-8.54-4.76,1.04,4.59,5.78,6.95,7.97,10.86l-.7,1.18c-1.89.37-9.87-9.19-10.18-11.41s1.1-3.49,3.17-3.67c6.33-.55,9.92,6.87,15.03,9.33,3.64-.94,8.48.41,11.96-.38,2.71-.61,7.16-7.46,9.7-.36l67.13-1.61.58-.42c1.98-8.24,7.25-7.62,9.26.24l9.06-.49c2.82-3.17,8.01-10.8,12.93-8.42,3.63,1.75-1.13,9.4-2.69,11.64-.44.62-5.01,6.38-5.72,5.56ZM453.2,207.78l-5.54.23.03,4.78c1.02,1.1,5.13-3.94,5.52-5.01ZM357.84,209.79l-6.52.75c2.2,3.21,5.26,3.02,6.52-.75Z"/>
      <path d="M401,87.33l66.78-1.28,4.31,64.95,57.1-4.89c.77-4.79.82-26.64,4.02-29.22,1.01-.81,1.71-.15,2.79.07l-.5.98c.52.19,2.26.37,2.44.59,1.5,1.85-1.19,13.82-1.42,16.75-.28,3.43-.26,6.88,0,10.28.45.47,10.53-1.1,12.28-1.03,1.87.07,2.44,1.2,3.67,2.37l9.04,49.26c-1.93,3.38.75,4.22,2.51,6.96,1.1,1.71,2.17,3.65,3.03,5.5,1.66,3.54,4.67,15.09,6.05,16.92.27.36,2.57.99,3.52,1.62,1.23.82,3.88,4.05,4.31,4.23.85.34.68-.33.85-.64.93-1.57,1.53-3.45,2.5-5.03,4.59-7.51,12.81-16.7,22.48-12.4-.02-.43-.08-.96.16-1.32,4.61-6.55,12.67-12.8,20.58-7.29,5.42-4.62,13.85-9.42,18.19-.89,4.99-2.7,10.63-2.86,12.74,3.25,1.9-.09,4.16-.79,6.04,0,1.07.45,1.69,2.31,2.16,2.61.66.42,3.72.76,5.02,1.26,10.38,3.96,11.13,17.67,9.15,26.99-.39,1.86-2.84,7.48-2.77,8.25.09.92,1.99,3.07,2.54,4.52,1.41,3.74,1.27,8.15-1.02,11.57-1.25,1.86-4.88,3.63-5.43,4.6-.94,1.64-1.77,7.5-2.86,10.19-5.31,13.07-21.68,22.17-32.59,30.64-5.17,4.01-9.99,8.46-15.18,12.43-.54.39-1.62-.29-1.64-.65-.08-1.82,10.45-10.28,10.52-11.04.11-1.25-3.86.01-4.47,0-.68-.01-.99-.56-1.41-.63-.67-.11-1.34.35-1.56.27-.07-.03-.11-.73-.43-.89-.88-.44-1.81-.72-2.63-1.3-2.31-1.62-2.55-4.23-4.19.39-1.45,4.06-.38,7.47.23,11.61,2.86,19.3,9.22,38.1,11.83,57.43.23,1.71.12,3.42.13,5.14-2.32-.15-3.45-2.3-3.98-4.29l-9.07-42.38-4.87,14.94c-1.09,2.67-4.13,20.47-5.91,20.65-3.26-1.33-1.17-7.17-.53-10.02,1.1-4.89,2.95-10.29,4.43-15.14,1.31-4.28,5.2-12.59,5.6-16.38.59-5.54-3.53-12.17-2.68-18.84.24-1.85,1.47-3.31,1.36-4.92-.32-4.52-7.17-17.37-9.51-22.18-5.91-12.17-12.69-25.51-19.61-37.1-1.97-3.31-8.48-14.24-11.57-15.53-2.83-1.18-5.93.88-3.89-4.39h-1.51c1.06-2.24-1.08-5.05-1.26-7.57l-1.24.04.02-.99.98-.24c-.7-.83-.67-1.94-1.04-2.89-1.58-4.04-4.14-9.14-7.41-11.49-.21-.15-1.43-2.16-2.92-3.62-1.3-1.28-1.05-3.43-4.17-2.84l-.21,2.02c1.73,2.7,4.36,5.9,5.79,8.68.21.4,1.47,2.15.16,2.34-.21.03-3.47-1.33-3.85-1.55-4.98-2.81-7.38-5.53-13.33-7.68-.13-.05-.09-1.6-2.12-.3.79-1.69-3.71-2.81-4.91-2.9-2.43-.19-2.9.86-.66,2.25,3.67,2.28,7.8,5.11,11.95,7.63.76.46,3.87,1.52,4.08,1.65.13.08.58,1.41,1.33,1.96.7.51,1.69-.57,1.76,2.46-.13.13-3.25-.82-3.63-1.01-5.89-2.9-10.32-7-16.87-9.17-.08-.02-.8-2.2-1.08-.09-.26,1.89,3.16,3.38,4.53,4.02,3.77,1.74,4.87,2.79,8.33,5.18,1.65,1.14,5.64,2.32,6.21,4.35.12.83.03.8-.75.76-1.97-.11-2.89-1.38-4.41-2.14-2.16-1.07-4.14-2.04-5.95-3.07-2.46-1.41-4.52-3.44-7.45-3.84-1.57,1.58,7.03,7.31,8.27,8.07.41.25.8.1,1.21.03-.13,1.24,3.06,2.59,4.69,3.59,1.15.7,4.91,2.27,4.8,3.62-2.15,3-4.14.43-6.69-.3s-5.48-1.05-8.02-1.97l-.26,1c2.19.3,3.79,2.83,6.02,2.02l-.48.96c2.94.6,5.96,3.12,8.82,3.52.58.08,1.49-.51,1.64-.41.13.09.23.99.86,1.38,1.01.63,2.54.94,3.72,1.06-.52,1.24-.75,2.02-2.24,2.04-1.89.02-10.32-3.59-12.5-4.62s-8.89-4.07-8.9-6.7c-.02-3.38,4.11-1.8,6.07-2.51-2.5-2.31-9.32-5.83-9.53-9.58-.1-1.76,2.02-3.22-.5-5.5l-17.6,1.06-9-47.46,2.99.03,9.11,44.09,15.72-1.9.54-3.57c6.01-4.23,12.62,5.44,18.81,1.75,1.02-.61,1.02-2.13,1.98-3.03,3.33-3.13,8.22,2.76,8.57,2.3l-9.5-47.47-11.32.8c-.63.03-.96.23-1.17.84-.62,1.84-.23,11.93-.11,14.49.24,5.06,1.51,10.31,1.21,15.34-.22,3.6-.09,7.41-4.94,6.45-2.31-.46-8.73-11.14-11.29-12.91-.79-1.37-1.43-2.21.31-3.06,1.5-.31,7.73,7.06,9.71,7.95l-2.03-28.08-57.19,4.99,2.04,39.93-.26,1.25-2.05.9-1.23-3.18-2.01-38.39-22.09,1.51c1.41,8.65,8.52,29.3-.54,35.35-3.73,2.49-9.73,2.47-12.51-1.47-1.89-2.68-1.69-8.38,2.68-7.3.84.21.8,3.47,1.44,3.94.22.17,2.66.59,3.12.56,6.04-.31,4.67-10.56,4.24-14.7-.21-2.07-2.55-15.18-3.54-15.79-8.71.18-17.8-2.24-24.51-7.86-8.68-7.26-13.15-18.13-16.13-28.78l-13.72.92c-8.57,14.6-20.09,26.91-32.27,38.49l.82,38.21-1.92.58c-1.19-11.93-1.25-24.11-1.51-36.13-.52-.56-9.98,6.84-11.18,7.64-8.47,5.63-17.51,10.13-26.72,14.44l.98,22.12c3.77,1.92,7.15-1.53,10.82-.04-1.48-2.02.02-6.72,2.73-6.01,2.03.53-.5,2.25-.66,2.86-.31,1.19,1.86,3.67,2.69,4.67,1.03,1.23,7.68,6.63,6.28,8.02-1.09.11-1.81.08-2.79-.47-2.13-1.21-5.84-6.4-7.75-8.33-1.61-.69-3.85.27-3.3,2.29.86,3.15,8.46,7.22,11.07,9.54.62.55,1.43,1.03,1.26,1.99-1.1,1.46-7.03-2.77-8.19-3.6-2.77-2-5.37-4.07-6.88-7.21l-9.03-.22-1.51-24.09c-3.39,1.05-25.48,8.3-27.05,6.98l-.96-4.67.73-.77,12.21-2.81,15.04-5.57-3.77-89.53c.62-.47,1.42-.75,2.18-.86,6.85-.97,17.14-.13,24.38-.32,20.27-.53,40.48-1.34,60.78-1.37,3.65-.14,1.47-6.36,4.29-7.74,4.14-2.02,4.13,4.69,3.52,7.28ZM464.24,88.83l-62.71,1.54c-.65,9.24.47,18.46,1.98,27.57,3.09-.08,6.21.12,9.3.03,2.19-.07,5.54-1.95,4.53,2.02l-12.84,1.22c4.01,16.95,15.71,33.86,35.14,32.36-1.92-9.57-5.92-18.72-8.1-28.29-1.42-6.22-4.16-15.69.31-20.9,6.8-7.91,14.98,1.42,9.81,6.29-3.6,3.4-1.72-3.67-2.27-4.79-1.41-2.83-5.25.35-5.94,2.59-1.26,4.06.85,12.23,1.92,16.49,2.43,9.71,6.62,18.96,9.3,28.6l23.01-2.58-3.44-62.16ZM393.98,90.34l-41.66,1,1.05,29.07,28.09-1.19c2.33-3.11,14.03-27.35,12.52-28.87ZM310.66,122.46l39.18-1.73-.75-28.92-39.43.53,1,30.12ZM388.96,118.94c.36.33,8.65-.31,9.78-.5.55-.09.99-.21,1.19-.79l-2.46-17.77-8.52,19.07ZM379.42,121.96l-25.88,1.47.28,28.63,6.5-5.79c6.95-7.64,14-15.22,19.09-24.31ZM350.32,123.46l-39.15,1.51,2.52,53.71c8.28-3.46,15.92-8.17,23.7-12.57l13.68-11.02-.75-31.63ZM550.06,201.76c.19-.97-.66-1.39-1.26-2h-.74s0,.99,0,.99l2,1.01ZM642.41,230.36l.5-1.72-1.19-.74c-2.42,1.57-4.73,4.29-7.84,3.97l2.5,4c-1.21-.06-1.28,1.34-2.3,1.97-.77.48-2.16.19-2.21,1.05,2.92-.63,3.69,5.6,4.82,5.99,2.54.88,2.54-3.01,4.21-3.78l-.5-1.2c2.17,1.04,1.88-.88,2.64-1.38.65-.42,1.63.04,2.67-1.09,1.55-1.7-.21-3.42.23-4.02l2.48-1.3-2.23-.78-.78,1.03-.27-1.51-1.24.52v-1.52s-1.51.5-1.51.5ZM658.47,227.86l-8.02,4.01c2.19.84,4.51,0,5.84,2.19,1.07,1.76-.63,2.28.19,3.84l-1.51.25,2.43,2.09,3.33,5.69c1.25-.86.35-.91.16-1.65-.73-2.87-1.27-5.8-2.12-8.62l-.29-7.79ZM628.05,230.69c-.47-.6-.76-1.34-1.45-1.75-1.16-.12-6.29,7.41-7.46,8.78-.69.8-2.69,3.54-2.89,3.67-.29.18-1.03-.5-1.38-.39-.1.03-.97,1.68-1.18,1.76-.55.19-2.16-.56-2.9.91l3.22,1.28c.74-1.2,1.79-1.01.78-2.53,2.48.51,3.01-2.88,3.53-3.52.05-.06.78.48,1.46.25,1.92-.66,4.26-2.81,6.56-1.76l-.94-4.21,2.25-1.81,1.2.5c.41-1.27-.56-.87-.8-1.18ZM631.7,242.08c-5.12-5.34-15.47,1.11-15.39,8.12.1,9.5,14.64,8.21,16.51.05l1.75-.26c1.85.66-.39,2.72-.19,2.95.16.19,1.2-.41,1,.5-2.56-.41-2.96,2.77-3.89,3.51-.84.66-6.64,2.42-7.91,2.51-6.91.5-9.73-4.3-10.52-10.57-4.73-1.91-8.79.27-9.67,5.42-.67,3.91.26,4.28,2.88,6.66l1.05-5.22-1.04-.8c2.47.6,1.01-2.86,3.26-4.01,2.06,1.76.05,4.91-.19,7.33-1.3,12.93,3.42,26.2,14.65,32.91,13.23,7.91,30.04,3.68,39.21-7.65,3.32-4.1,5.57-8.6,5.81-13.74.02-.32.9-.24,1-.63.29-1.11-.7-6.44,1.76-5.99.48.09.97.92,1.5.81.61-.13.57-1.48.92-1.88.23-.25,1.69-.54,2.49-1.77,1.5-2.29.79-3.34.99-3.79.04-.08.79-.06.87-.42.36-1.58-.99-5.25-2-6.49-.51-.62-.95-.23-1.38-.42-.12-.05-.07-.69-.44-.75-.25-.04-2.76.21-2.98.4-1.24,3.59-1.99,6.66-6.63,4.75-1.02-.42-1.43-2.63-2.65-3.41-1.08-.69-2.69-.61-3.85-1.17-2.42-1.16-1.83-3.29-2.7-5.33-3.02-7.1-14.61-3.38-15.52,3.95-1.29,10.37,9.57,11.38,14.89,4.32,5.28,2.69-3.36,6.94-6.12,7.46-1.24.23-2.65-.11-3.92.02l-.82,1.01c.8-2.56-3.31-1.88-3.52-2.01-.05-.03.46-.77.06-1.27-.33-.41-1.16-.54-1.41-.88-1.98-2.72-2.4-4.96-2.15-8.39-4.64,1.13-3.45-3.51-5.69-5.85ZM636.89,303.64h-4.51s.5,4.01.5,4.01c1.66-.97,3.35-2.1,4.01-4.01Z"/>
      <path d="M243.66,257.97c1.55.26,1.47,1.63,1.19,2.94l-16.78.54c-18.74,27.94-40.59,55.78-72.98,68.29-.7-.73,2.51-2.79,3.06-3.21,2.18-1.65,12.55-7.43,13.28-8.84.5-.97-1.12-4.28-2.03-5.03-2.49-2.06-4.09-1.03-6.45-1.18-8.52-.53-16.6-1-25.2-.84-2.51.05-4.61,1.04-7.25.02,0-1.45,1.01-2.25.94-3.78-.2-4.3-3.91-12.54-8.11-14.15-16.06,10.14-34.02-4.85-38.64-20.31-5.61-18.8,9.51-27.6,17.47-42.04,8.44-15.33,11.75-45.33,35.11-43.67,19.28,1.37,21.26,26.28,12.89,39.48l-4.6,7.19c1.6-.19,1.98-2.03,3.26-3,1.43-1.09,5.32-2.61,6.95-1.48,3.53,2.45-4.35,4.48-5.07,5.13-.41.38-.33,1.2-.61,1.5-1.47,1.57-2.91,2.07-2.6,4.85l-1.38.07-.06,1.98-.99-1.75-1.52-.27,2.01-6.51c-1.86-.3-1.2,1.91-1.61,2.4-.2.24-1.19.19-1.65.59-.51.44-3.13,3.01-3.14,3.28.03,1.17,1.97,2.45,2.22,2.92,1.73,3.2,3.47,9.8,3.81,13.52.03.37.67.79.69,1.12.01.29-1.91,3.59-1.57,4.8-.09.16-3.14.98-3.48.96-.35-.02-4.49-1.95-4.67-2.14-.37-.38-.43-1.76-.64-2.38l-1.5,1c1.67-.93-2.78-5.8-3.11-5.94-.53-.22-1.25.56-1.91.42l.26-1.51c-.41-.69-1.41-.03-1.79-.27-.95-.6-.36-2.36-3.02-1.52-1.56.49-4.52,4.24-4.77,5.79-.1.59.59.97.57,1.26-.05.76-1.4,1.67-.73,3.47.25.67,1.16.66,1.35.92.13.18.04,2.59,1.44,3.91,1.3,1.22,2.77,1.14,3.53,1.64.36.23.38,1.2.92,1.3.44.08,1-.41,1.42-.42.23,0,.3.92,1.38,1.19,1.65.41,4.18-.25,5.95-.2-.01.89-.1,1.77.11,2.65.31,1.32,1.78.62-.27,1.98-1.03,5.87-3.7,10.52-7.82,14.76-.04.23,2.08,3.46,2.43,3.97s1.23.54,1.41.86c.34.58,3.83,9.12,3.9,9.65.12.93-.61,2.62-.27,3.78,9.43-1.32,19.37-1.23,29.11-1.01l-1-.5,1.03-2.25-.99-.28v-.95c.98-.43,2.04-3.58,2.69-5.09.4-.92-.7-2.95,1.78-.96-.16-2.81.97-1.83,1.76-2.49.58-.48,2.5-2.28,2.82-2.77.6-.94-.11-1.68-.04-1.74.09-.08,1.04.01,1.72-.54,1.73-1.41.69-3.14.84-3.41.12-.22,1.18-.22,1.71-1.58.68-1.74,1.2-8.68.12-9.94-.32-.38-5.03-2.62-5.91-1.62l.43-1.21-1.48-1.11.58-2.16,4.73,1.49c1.28-1.4-.72-2.18-.73-2.32-.15-3.2-.82-4.06-1.77-6.96-.49-1.49-.05-4.34-2.27-3.78-.24-.18.78-.82.84-1.24.17-1.19-1.34-.97-1.34-1.76,1.74.16,2.63-.12,2.51-2.01,1.5-.45.56,1.14,1.7,1.02,2.26-.23,7.58-2.16,6.75-5.17-.04-.15-1.45-2.17-1.57-2.24-1.76-1.02-8.46-4.78-10.23-5-.51-.06-1.55.49-1.68.34-.09-.1.34-1.86-1.27-2.02-.31-.03.03,1.57-1.24,1.01v-1.51s-1.73.52-1.73.52c-1.79-3.15-5.29-.13-6.29-4.29.08-1.47,4.55-.21,5.51,0,5.36,1.17,19.42,6.23,21.86,11.27,2.77,5.73-3.18,9.24-7.82,10.81l-.51,1.02c3.57,11.54,8.33,22.48,1.14,33.74-1.67,2.62-8.86,10.03-9.13,11.97-.83,6,3.49,3.92,5.86,6.88,1.06,1.33.63,3.67,1.94,4.86.67.14,8.15-5.79,9.26-6.76,11.53-10.07,22.26-23.56,31.32-35.94,5.99-8.18,13.1-22.23,22.03-26.65,1.99-.98,4.07-1.62,6.15-2.39,3.51-4.93-10.48-19.5-12.83-23.91l-.66-.15c-.8,1-2.82,1.34-3.52,1.91-.61.5-.41,1.85-1.35,2.33-.8.41-1.67-.29-2.53-.08-1.12.27-3.7,2.8-4.75,2.8-1.71.02-5.08-6.85-4.78-8.21.08-.36.87-.25.98-.66.08-.31-.48-.8-.02-1.45.53-.74,2.3-1.3,3.06-2.02.5-.47.37-1.42.84-1.77.82-.61,2.11-.06,3.04-.34.56-.17,6.88-3.6,7.16-3.89.9-.92,1.96-4.97,2.93-6.61.41-.7,3.69-4.16,3.11-4.67-32.72-1.74-69.25-13.58-89.24-41-3.08-4.22-5.3-8.94-8.37-13.15-25.86,20.1-56.43,35.75-89.59,38.58l16.51-3.79c17.64-5.56,34.77-14.05,50.2-24.09l20.36-15.28c1.07-1.75-1.52-7.74-2.01-10.03-8.02-37.69,9.34-81.1,40.75-103.3,30.03-21.23,39.27,2.28,31.52,30.02-9.03,32.36-37.05,61.34-61.7,82.84-1.64,1.97,1.01,5.76,2.14,7.84,15.32,28.08,49.85,41.68,80.21,45.26,3.68.43,12.68,1.57,15.93,1.06s5.04-3.05,8.97-2.37c5.73.98,2.07,6.59,2.38,6.91,5.56-2.23,9.98-5.37,16.33-4.54,1.52.2,2.59.85,2.04,2.55-.12.37-3.18,4.67-3.56,5.01-1.54,1.38-5.29,2.63-7.28,3.51.5,1.17,1.98,1.09,2.99,1.77,3.92,2.64.96,4.09,1.13,5.91.08.84,1.06,1.47.9,3.05-.08.8-.8,1.48-.86,2.12-.12,1.14.84,2.2.11,3.71-.69,1.42-5.76,2.59-5.77,3.26,4.32,5.48,5.64,13.74,3.86,20.43-.58,2.19-1.51,3.02-2.36,4.91,7.01,4.12,8.88,16.25,8.55,23.87-1.24,28.54-21.7,55.55-40.66,75.27-8.55,8.89-18.01,16.84-27.04,25.19,2.47,13.22,7.3,25.98,9.82,39.18.48,2.55,1.91,7.49.39,9.64l-2.72-.27c-.55-.32-2.28-2.03-2.44-2.59-.75-2.53-.71-7.27-1.33-10.21-1.46-6.89-3.8-13.66-5.3-20.55-2.89.96-17.67,11.26-19.52,9.99-.36-1.04-1.04-2.32-.06-3.22,2.69-2.34,16.56-8.22,17.83-10.29s-3.44-11.51-1.48-14.5c10.18-9.25,20.98-17.77,30.33-27.91l-10.7-3.72c-1.15-.77-.69-3.7,1.29-3.47,3.51.41,8.14,3.13,11.77,3.84l.91-.36c8.8-9.65,16.97-20.11,23.02-31.72,6.74-12.95,13.65-32.17,9.7-46.72-1.95-7.19-8.29-12.84-16.04-11.81-5.62.75-13.62,5.58-15.94,10.91,3.89.45,9.08-.61,12.8,0ZM190.59,21.71c-10.42,1.43-25.32,15.92-31.7,24.01-16.2,20.55-25.67,46.45-22.32,72.91.25,1.98,2.32,12.93,3.77,13.33,1.15.09,2.07-.86,2.93-1.49,3.36-2.49,7.96-7,11.07-10.01,19.55-18.91,44.32-49.98,47.85-77.62,1.13-8.81.66-22.81-11.6-21.14ZM250.44,192.22c-2.14-.87-2.94.82-3.38.97-3.8,1.3-5.85,1.95-8.86,5.1-2.82,2.95-4.28,5.3-4.32,9.19,0,.35-.94.27-1.17.91-.48,1.32.25,9.09,2.65,7.93-.45.88,2.33,5.76,2.61,5.93.46.29,1.35.01,1.93.08-.86,1.18-.23,2.74,1.03,3.28.64.27,1.43-.34,1.48-.28.06.08-.04,1.32.28,1.98.48.98,1.43,1.71,1.93,2.6,2.15,3.85,4.23,7.5,4.04,12.02l8.21,1.55,1.24,1.34c2.12-.21,2.17-1.25,2.37-3.18.5-4.88-.2-12.19-3.52-16.04-1.49-1.72-3.04-1.38-3.47-3.57l-1.28.3-.26-1c.34-.41,3.27-1.27,3.86-1.67.33-.22.56-1.33.9-1.34.1,0,.59.86,1.4.88.64.02,5.74-1.55,4.37-2.9l-3,1v-1.51s-2.76,1.03-2.76,1.03l-.53-1.05c-1.32.74-3.69.52-4.85,1.04-.65.29-.61,1.29-1.11,1.36-.85.12-1.48-1.21-2.1.67-.89-.23-2.22-.07-2.19-1.26.05-2.17,3.08-2.33,4.96-3.09,3.45-1.4,5.81-.28,9.36-.65.9-.09.68-.85.86-.95.45-.25,1.24.84,1.86-.36-1.33-1.25-2.66-1.55-4-.25.15-3.53-3.74-1.26-6.02-2v1.5c-1.51.44-.56-1.11-1.7-1.01-3.04.25-7.2,3.81-9.35.52,2.08,1.19,2.99-1.56,3.62-1.89s1.4.05,2.04-.13c.43-.12.32-.93.67-.98,1.88-.22,4.9-.76,6.54-.85,1.9-.1,4.51.87,6.39.81.41-.01,2.24-.35,1.81-1.23-3.71-2.9-9.05-2.54-13.37-1.35-.48.13-2.94,1.78-3.32,1.99-.36.19-1-.31-1.4-.14-1.04.45-.87,2.09-1.01,2.25-.05.06-.85-.47-1.49-.29-1.13.32-1.82,2.25-3.01.53-.35-1.83,5.54-5.33,7.08-5.96,2.89-1.17,5.93-1.07,8.58-1.96,2.49-.83,6-3.41,8.71-4.36l-1.03-4.02-20.81,10.01-1.03-2.49c2.34.31,3.51-1.8,5.46-2.62l-.21-1.4c2.72-.08,4.05-2.45,4.28-5.01ZM228.86,210.79l-6.01,3.3,2,4.73,4.95-2.59-.94-5.44ZM220.27,216.37c-1.87-.48-3.2,1.22-4.96,1.45l3.25,4.92,3.77-1.92-2.07-4.45Z"/>
      <path d="M740.78,250.43c5.73-1.51,12.11-4.03,17.94-4.89,2.39-.35,7.53-1.13,8.46,1.87,1.01,3.25-4.67,5.15-6.33,7.03,2.52.19,7.01-.83,8.56,1.73,1.37,2.26-.42,2.75-.48,4.02-.06,1.19.97,2.08.19,3.78-.52,1.14-2.73,1.99-3.01,2.49-.3.55.87,1.91-.74,3.8-2.61,3.05-16.2,7.16-20.48,8.13-1.99.45-12.71,2.83-13.16.39.22-3.1,2.71-2.02,4.21-2.27,2.39-.4,4.18-1.41,6.05-.94l.51-1c5.23.72,10.91-2.04,15.84-3.73,1.66-.57,4.23.26,5.02-2.84l-1.01,1-.82-1.01c-1.43.15-3.12-.19-4.48-.03-.92.11-.65.87-.96.94-1.87.4-5.47.04-7.53.61-2.52-2.02-5.22-4.28-8.39-5.17-1.85-.52-6.28-1.97-6.43.66l-.5-1h-.99c.16,1.79-.92.49-1.69.64-1.54.31-2.39,1.91-4.34.85.98-2.7,3.02-2.59,5.18-3.5.31-.13.25-.95.65-1,4.08-.43,9.98.92,13.58,2.91.97.54,3.67,2.91,3.92,2.93.76.08,1.75-.95,2.55-1.07s2.56.32,2.93.21c.46-.14.26-.93.32-.98.22-.17.91.92,1.71.96.39.02,5.08-.39,5.47-.47.11-.02,1.54-.59,1.84-.71.51-.22,2.8-1.33,2.5-2.03-.55-1.31-4.65.6-3.43-2.43.74-1.84,4.11-1.08,3.43-3.35-1.75.8-5.99-1.25-6.03,1l-.79-1.01c-2.7.62-5.71.51-8.42,1.09-1.01.22-2.47.1-2.34,1.42l-.77-1.03c-1.54.78-3.25.57-4.74-.23l5.02-2.92c5.23-.62,10.15-3.58,14.6-6.03.74-.41,1.21-.15.96-1.34-6.55.27-12.66,2.7-18.94,4.31-.67.17-.94-.73-1.41.73l-1.47-.53-.26,1.51c-1.01-.06.05-1.47-1.5-.99l-.29,1.01c-2.98-1.55-9.51,3.22-10.75-1.01.39-.54,5.28-2.59,6.18-3.13.62-.37.71-1.04,1.24-1.37,1.21-.74,4.84-1.79,5.62-3.29.84-1.62-1.57-.03-1.75,0-.47.08-1.06-.19-1.75-.04-8.09,1.84-19.71,6.94-20.59,16.34,4.76.49,8.3,5.69,10.19,9.7.35.75-.09,1.28.02,1.74.02.09.78.06.82.41,1.79,13.48-7.25,28.87-15.34,39.29-5.6,7.21-12.18,13.6-18.76,19.88,11.74,9.17,24.75,18.38,34.63,29.6,12.26,13.92,15.85,35.28-.06,48.14-1.53,1.24-5.21,3.89-7.18,3.35-1.21-1.58-.52-4,.5-5.52.84-1.25,2.13-1.55,2.99-2.53,7.84-9.02,10.48-17.85,5.61-29.23-4.65-10.86-19.66-22.45-28.75-29.7-4.17-3.32-8.2-6.67-12.58-9.77l-5.2,1.68c-.18-2.78,7.36-8.29,9.3-10.27,11.03-11.23,24-25.63,28.86-40.9,4.56-14.33-1.35-27.35-17.59-19.1-15.18,7.71-28.73,21.19-43.61,29.67-1.66,14.04-11.31,23.52-20.52,33.15l12.46,33.06c.29,2.11-3.61.59-3.95.17-.21-.25-.08-2.11-.31-2.96-2.53-9.59-6.6-19.57-10.56-28.57-3.22,2.59-10.06,10.33-14.04,10.55-.73.04-.93.05-.77-.78.6-3.16,8.29-8.49,10.87-10.96,8.95-8.55,20.3-18.61,23.53-30.92.38-1.45.76-7.74,2-8.04l1.49,1.5c6.2-4.67,12.37-9.41,18.67-13.96,10.39-7.5,21.23-16.45,33.68-19.76,2.38-10.2,14.34-16.99,24.07-18.34,10.96-1.51,7.65,4.16,1.63,8.4Z"/>
      <path d="M560.5,234.29c-.11.19-2.5,1.63-3.33,2.93-3.46,5.4-.59,16.43,1.07,22.36,3.77,13.52,10,27.25,14.65,40.55,12.87,36.76,26.48,74.12,34.84,112.21.34,1.54,1.57,6.41,1.39,7.51-.07.39-1.23,1.1-1.6,1.21-1.42.42-.18-1.04-.48-1.52-.26-.4-1.23-.59-1.88-1.63-5.08-8.17-7.93-26.7-10.76-36.52-5.98-20.84-12.72-41.42-19.8-61.9l-.7-.8c-10.11,11.25-27.06,4.1-31-9.15-1.85-6.21-2.13-20.17,6.58-21.05,1.28-6.79.3-16.13,7.46-19.71-2.61-9.05-8.09-23.9-2.79-32.58.91-1.5,3.24-2.64,3.65-3.33s-1.17-1.28,2.3-.79c.58.43.75,1.58.4,2.2Z"/>
      <path d="M80.87,358.94c-.25,5.67-.37,11.57-1.07,17.22-.16,1.29-.46,4.68-1.23,5.33l-2.19-.16c-1.24-1.37.79-13.95.93-16.69.04-.79.44-3.65-.76-3.28-9.6,6.48-22.88,12.37-29.79,21.91-7.2,9.95-.84,20.73,7.44,27.52,11.73,9.62,21.97,2.98,32.37-4.78,5.03-3.75,10.96-10.71,15.84-13.77,1.07-.67,2.15-1.05,3.44-.69-.33,1.23,1.09,1.34,1,2.04-.25,1.97-2.36,6.78-3.21,8.91-2.19,5.45-6.58,15.78-9.67,20.45-.53.81-2.75,3.37-3.88,2.16-.21-.22-1.54-4.33-1.52-4.58.15-2.76,8.96-15.01,7.8-16.52-8.33,5.66-21.73,18.1-32.3,17.01-4.31-.44-7.73-2.65-11.54-4.38-3.06,3.31-11.23,10.47-15.84,7.65-3.49-2.13-.26-5.94-.55-6.22-3.86,1.04-9.7,5.6-13.76,5.01-5.07-.74-.44-6.68-.8-7.02-2.38,1.07-10.12.31-6.2-2.96,3.22,2.3,6.63-.9,10.22-.56l-.5-1.5,2.51,1c.12-4.03-4.2-.51-6.49-.95l-.04,1.46c-1.93-1.97-3.64-.29-5.82-.06-3.08.33-4.49.08-5.72-2.95l3.23-.53.52,1.03,2.02-1.51.46.98c1.27-.59,2.14-.24,1.79-1.98h1s.31,1.04.31,1.04l4.6-2.16-.41-1.38c-1.21.02-2.85.14-2.22,1.49l-.51.5-.95-1.02c-2.38.65-10.7,4.37-12.09,1.53-2.19-4.49,5.7-8.31,9.02-9.55,7.19-2.69,15.43-3.56,22.85-1.5-1.89-9.17,4.25-17.09,10.93-22.56,18.28-15,44.31-25.36,64.31-39.46,2.38-1.68,9.76-6.72,10.55-9.02.73-2.13,2.01-13.79,2.57-14.25l2.27.45c1.1,1.58-1.01,13.94-2.03,16.1-.82,1.72-6,5.8-7.83,7.23-11.98,9.38-25.99,16.23-39.04,23.98ZM43.5,406.19c-.28-.41-1.17-.48-1.58-1.18-1.2-2.09-.85-5.34-3.89-6.2-.38-.11-3.85-.82-4.13-.85-5.95-.52-15.41.96-20.49,4.1-1.44.89-2.76,1.92-3.87,3.21l1.75.76.25-1.52c1.58-.48.4,1.16,1.75,1l.77-2,1.74,1,.26-1.5c1.95.73,4.24.19,6.15-.54.38-.15.38-1,.66-1,1.24,0,3.49,1.49,3.24,3.04l1.5-.5-.5,2,1.45.04c-.95,3.03,6.95,5.11,6.57,7.2-.93,1.26-2.59.6-3.9,1.12-.63.25-.52,1.17-.9,1.16-2.48-.04-2.72.85-4.72,2.18-.77.51-2.56.66-3.01,2.34,1.23-.11,2.76-.41,3.9-.85,2.3-.9,5.7-3.45,7.78-4.55.29-.15,3.46.13,4.39-.62l.49-1c.24,1.8,1.4,2.77,1.02,4.78-.24,1.24-2.63,1.69-2.02,3.75l2-.99.25,1c3.94-1.72,6.96-4.03,9.78-7.28-1.71-1.3-3.26-4.07-5.51-3.77.93-1.22-.35-3.13-1.16-4.35Z"/>
      <path d="M333.75,303.64l5.74-4.98c1.59-.12,6.96,4.55,7.83,6.23-2.02,4.48-6.95-2.38-8.21-2.19-1.31,1.12-5.06,3.2-5.36,4.71-.64,28.64.88,57.06,2.5,85.56,1.17.31.84-.27,1.15-.64,1.3-1.52,2.85-4.78,5.17-4.89.34-.02,5.94,2.27,6.4,2.6,2.14,1.54,2,3.48-.92,3.48-4.58,0-4.08-3.86-8.54.96-2.59,2.79-2.89,3.99-2.77,7.81.15,4.88,1.05,10.72,1.06,15.53.02,7-5.78,6.22-6.09.5-.05-.95.45-1.91.42-2.87-1.71-43.49-4.31-86.74-1.91-130.14.35-6.39.94-22.12,3.93-27.18,1.98-3.35,5.16-3.53,8.09-5.49-1.08-4.28.62-14.44-2.43-17.52-3.65-3.69-18.93-6.27-20.85-10.77-2.77-6.52,7.64-6.39,10.78-3.25l-.8,1.22c-1.07.27-8.63-2.84-7.66.71.71,2.58,18.3,7.66,21.38,9.5,3.42,2.84,2.26,15.04,3.15,19.43l13.05-3.01c.41,1.53-1,1.98-2.17,2.59-4.35,2.24-17.55,4.96-19.64,7.97-3.2,4.63-2.36,18.29-2.78,24.07,7.51-2.13,15.04-5.88,22.59-7.77,1.54-.39,3.78-1.53,5,0l-27.1,10.53c-.25.22-1,2.75-1,3.02v14.3Z"/>
      <path d="M739.69,140.15c30.47-.74,53.36,28.51,45.4,57.99-10.11,37.41-60.44,45.96-82.06,13.52-19.93-29.89.83-70.64,36.67-71.51ZM771.6,157.38c-20.31-21.87-57-16-69.06,11.42-15.28,34.75,18.92,70.39,54.28,56.29,27.36-10.91,34.76-46.18,14.77-67.7Z"/>
      <path d="M626.21,115.31c-.06.1-.58.02-.83.52-.16.32.1,1.04-.15,1.48-.49.88-15.57,7.77-17.89,8.97-10.06,5.22-21.28,12.27-31.49,16.69-2.49,1.08-4.8,1.98-6.63-.77-8.7-16.21-19.46-31.62-27.77-48.01-1.84-3.63-2.64-5.44,1.24-7.96l51.68-26.11,2.52-.31,29.33,55.5ZM572.15,139.02l50.14-25.9-27.3-49.32-50.45,26.29,27.61,48.93Z"/>
      <path d="M664.64,77.63c15.52,9.68,34.71,16.85,49.88,26.66,2.82,1.82.98,1.61.86,2.86-.09.93,1.4,2.38.43,3.61l-26.54,50.28-2.05,1.99c-1.07.25-3.29-.99-4.34-1.5-16.02-7.69-31.56-17.44-47.68-25.1-1.51-.93-2.26-3.16-1.45-4.8l29.49-55.35,1.4,1.34ZM686.53,158.06l27.09-50.41-49.39-26.8-26.33,52.12,48.63,25.09Z"/>
      <path d="M83.2,210.91c5.71-.62,15.82,3.98,17.33,10.01,2.6,10.4-9.23,11.95-16.66,9.13-5.44-2.07-10.88-7.51-8.3-13.7,1.08-2.59,4.9-5.15,7.63-5.44Z"/>
      <path d="M402.84,179.35c.81.94,5.14,5.43,4.19,6.35-4.97.89-7.57-5.14-10.83-8.01-1.51-.34-5.66,8.56-8.26,7.79-2.64-1.9,3.42-7.21,4.5-8.7.39-.54.93-1.07.95-1.77-.3-2.12-6.81-6.48-7.69-8.38s.33-3.14,2.25-2.25,5.65,6.39,7.78,7.77c.75,0,5.93-7.55,6.92-8.36,1.96-1.6,3.58-.28,2.48,2.22-.74,1.68-6.66,7.14-6.67,8.41.8,1.96,3.14,3.52,4.36,4.94Z"/>
      <path d="M102.48,368.8c-1.19-2.66-.82-3.59,2.14-3.43s22.01,3.43,23.71,4.42c2.57,1.49-.31,2.68-2.08,3.14l-23.77-4.12Z"/>
      <path d="M157.47,372.02c.45.38.53,1.32.41,1.9l-6.27,25.78c-1.15,1.45-2.73-1.47-2.86-2.46,2.4-7.35,3.18-15.62,5.47-22.94.48-1.53,1.3-3.91,3.25-2.28Z"/>
      <path d="M165.96,353l18.86,1.96c4.12.67,5.77,2.47,1.11,4.38-5.95-1.27-12.5-1.06-18.42-2.13-2.01-.36-4.13-.88-3.16-3.39l1.61-.81Z"/>
      <path d="M194.04,312.71c1.22-.4,2.53.45,2.69,1.73-.19,6.83,2.25,14.93,1.54,21.59-.37,3.44-3.62.56-4.01-2.06-.61-4.08-1.04-11.81-1.06-16,0-1.27-.41-4.85.83-5.26Z"/>
      <path d="M84.07,398.49l.78,2.67c-.11.32-1.15.84-1.28.84h-24.09c-1.23-.66-1.3-3.51,0-3.51h24.59Z"/>
      <path d="M218.17,309.51c-1.8,1.65-2.94-1.6-2.48-3.21l9.62-18.49c1.05-1.22,2.49-.89,3.33.28l.02,1-10.49,20.42Z"/>
      <path d="M137.47,331.79l5.56,26.05c-1.56.22-2.68-1.18-3.38-2.38-.75-6.83-4.22-14.49-5.03-21.09-.32-2.58.27-2.88,2.85-2.58Z"/>
      <path d="M247.16,275.72c1.35-.77,2.26.52,2.64,1.71.86,2.68,2.99,14.87,2.97,17.52-.02,3.43-2.7,3.32-3.7.27-.8-2.42-3-16.34-2.64-18.44.12-.7.15-.73.73-1.06Z"/>
      <path d="M128.62,422.44l-10.64-17.12c1.58-1.74,2.05-1.49,3.46-.04,1.81,1.86,8.95,12.51,10.14,14.95.28.58,1.18,2.17.43,2.61l-3.39-.41Z"/>
      <path d="M386.45,370.38c-3.55,1.94-5.75-.53-9.22-1.04l-3.31,7.33-1.69.18c-.52-.17-1-.93-1.13-1.44-.17-.65,3.62-9.94,4.15-10.07,3.67.48,9.63,1.28,11.21,5.04Z"/>
      <path d="M370.77,323.59c-2.47,2.26-7.23-2.19-8.39-1.37-.73,1.81-.64,7.53-3.29,7.54-3.61.01-.26-10.99,1.62-11.5,1.52-.41,10.37,2.9,10.56,4.19.03.18-.33.98-.5,1.14Z"/>
      <path d="M368.51,411.17c.38-.36,1.14-.54,1.67-.6,1.53-.16,10.63,1.37,10.22,3.19-.83,3.72-7.98.26-9.02,1-1.05,1.4-1.63,6.58-4.04,6.09-3.29-.24.31-8.86,1.17-9.68Z"/>
      <path d="M156.59,237.39c-1.22,2.34,1.82,2.46,2.4,3.87.34.83,1.25,5.55.87,6.16l-2.76,1.51c.15-1.37-2.22-3.27-2.41-3.64-.17-.35.59-3.06-1.38-2.76-.33.05-2.22,2.46-2.48,2.93s.16,1.28,0,1.5c-.45.62-1.5.27-1.91.5-.66.36-.01,1.34-1.37.98.5-.7-.02-3.27.07-3.41.34-.56,3.18-3.08,3.68-4.14.24-.5-.16-1.18,0-1.51.14-.28,3.15-.66,3.91-.99.55-.24.04-1.41,1.36-.98Z"/>
      <path d="M686.92,273.38c-.87,1.05-7.21,5.53-8.56,5.13-1.27-.38-2.61-8.84-2.32-10.5,2.85-.36,2.47,7.53,3.76,7.52l4.26-3.75c-.03-.98-6.84-2.98-6.51-5.27,1.05-.9,8.26,3,9.31,3.99.96.91.89,1.89.07,2.89Z"/>
      <path d="M637.89,317.18c-.22-.18,2.86-4.06,3.25-4.52,3.45-3.95,9.87-10.32,13.85-13.76,1.91-1.65,3.01-.43,1.67,1.67-2.12,3.33-11.75,12.9-15.11,15.01-.59.37-3.13,2.04-3.67,1.6Z"/>
      <path d="M394.03,398.45c-.2-.68-.63-1.49-.56-2.2.14-1.38,6.69-5.75,8.3-5.82,3.19-.14,6.57,4.12,7.77,6.8-2.91,3.25-6.13-3.28-7.78-3.27-1.72.47-6.14,5.57-7.73,4.49Z"/>
      <path d="M439.8,413.39c-.76-.59-2.06-3.24-3.82-2.8s-4.27,5.98-7.38,4.96c-.58-.53,5.91-9.55,9.16-8.95.76.14,7.27,5.78,7.35,6.27-.61,2.58-3.69,1.78-5.32.52Z"/>
      <path d="M427.43,260.16c-5.14-3.21-7.86.08-7.95,5.25l-2.42.59c-1.98-4.48,1.68-10.75,6.74-10.51,2.13.1,7.98,3.07,7.3,5.71-.6,2.32-3.46-.91-3.67-1.04Z"/>
      <path d="M347.18,347.38c2.15-.36,3.59,2.6,4.54,4.28.46.81,2.87,4.75,1.32,5.15-3.39.87-4.88-4.6-6.06-4.96l-5.54,2.37c-5.28-1.25,4.38-6.62,5.74-6.85Z"/>
      <path d="M401.46,273.48l-2.24-.42c-1.62-7.5,4.42-14.65,11.79-9.78.81.53,4.13,3.77,1.78,4.23-1.61.32-4.72-5-8.96-1.95-2.54,1.82-1.32,5.41-2.36,7.92Z"/>
      <path d="M462.23,217.31c2.91-5.16,7.91-8.92,10.64-14.2.54-1.05.4-4.11,2.16-3.36,2.41,1.04-1.44,6.85-2.35,8.18-1.16,1.71-8.45,10.93-10.45,9.37Z"/>
      <path d="M169.79,422.94c-.62-.75-.69-1.55-.57-2.48.17-1.24,1.89-7.62,2.38-8.7.91-2,1.84-1.45,2.07.52.17,1.48-1.15,11.81-2.28,11.81-.33-.56-1.29-.77-1.6-1.14Z"/>
      <path d="M614.8,370.39c-3.67-1-1.64-11.4,1.25-10.53,1.99.6-.18,9.01-1.25,10.53Z"/>
      <path d="M459.1,259.86c-2.36,2.36-6.9-.7-4.43-4.18,2.68-3.79,6.94,1.68,4.43,4.18Z"/>
      <path d="M645.42,356.34l2.51,11.54-2.27-.49c-.6-2.92-2.31-6.8-1.74-9.8.16-.86.53-1.41,1.5-1.26Z"/>
      <path d="M633.63,364.37c.97-.09.99.62,1.22,1.28.42,1.21,1.64,8.33.27,8.75-3.11.37-3.41-9.59-1.49-10.03Z"/>
      <path d="M344.15,265.06c3.57-.93,4.42,5.47.32,5.85-3.38.32-3.44-5.04-.32-5.85Z"/>
      <path d="M622.19,409.12c4.19-1.22,5.44,5.98-.09,4.92-2.66-.51-2.18-4.26.09-4.92Z"/>
      <path d="M641.37,370.86c-2.19,1.41-3.37-5.92-3.38-7.26,0-.74.46-1.49.4-2.25,1.16-1.08,2.49,3.61,2.64,4.13.54,1.88,1.28,3.47.34,5.37Z"/>
      <path d="M582.56,302.73c3.84-.79,4.35,4.05,1.78,4.84-3.29,1.02-5.5-4.08-1.78-4.84Z"/>
      <path d="M665.35,398.59c5.72-1.72,3.97,7.22-.32,4.14-1.55-1.11-1.47-3.6.32-4.14Z"/>
      <path d="M680.93,380.8c-1.31.9-2.97.74-4.32.06-1.07-5.94,6.27-5.79,4.32-.06Z"/>
      <path d="M694.46,356.41c3.03-.7,3.89,4.44.87,4.94-4.34.73-2.99-4.45-.87-4.94Z"/>
      <path d="M604.6,309.24c4.19-1.47,5.38,4.71.92,4.49-2.57-.13-2.68-3.87-.92-4.49Z"/>
      <path d="M707.03,390.84c-2.16,2.16-5.96-1.37-3.37-3.62s5.24,1.74,3.37,3.62Z"/>
      <path d="M578.79,254.83c-2.08-2.06.89-5.12,3.17-3.43,3.05,2.26-.8,5.79-3.17,3.43Z"/>
      <path d="M717.02,370.46c3.87-1.28,4.52,5.04.45,4.46-2.5-.35-2.07-3.93-.45-4.46Z"/>
      <path d="M701.57,307.22l.33,3.45c-1.46,1.58-4.34,1.07-4.33-1.26l.3-1.26,3.71-.93Z"/>
      <path d="M573.53,273.15c1.77,1.8.04,5.55-2.57,3.84-3.06-2,.29-6.16,2.57-3.84Z"/>
      <path d="M669.85,348.37c3.11-1.04,4.32,3.13,2.18,4.2-3.47,1.73-4.51-3.42-2.18-4.2Z"/>
      <path d="M652.07,370.51c2.04-2.02,5.36.77,3.43,3.19s-5.52-1.13-3.43-3.19Z"/>
      <path d="M719.05,275.62c1.98-.6,3.58.81,2.8,2.77-1.71,4.25-6.53-1.64-2.8-2.77Z"/>
      <path d="M594.08,278.62c2.94-.82,3.64,3.71,1.3,4.37-2.74.77-3.65-3.71-1.3-4.37Z"/>
      <path d="M595.55,332.35c2.95-.55,3.75,3.67,1.33,4.34-3.08.85-3.5-3.94-1.33-4.34Z"/>
      <path d="M611.11,376.47c2.65-.89,4.3,2.37,2.69,3.71-2.66,2.22-4.93-2.96-2.69-3.71Z"/>
      <path d="M699.48,278.64c3.63-1.09,4.05,4.46.43,3.93-2.22-.32-2.43-3.33-.43-3.93Z"/>
      <path d="M561.96,243.48c2.72-.75,3.71,3.13,1.3,3.85-3.51,1.06-3.33-3.29-1.3-3.85Z"/>
      <path d="M651.77,333.86c3.03-.29,2.94,4.5-.56,3.93-2.42-.39-1.98-3.69.56-3.93Z"/>
      <path d="M637.01,395.86c-1.61-1.63-.04-4.34,1.9-3.63,3.04,1.11.54,6.08-1.9,3.63Z"/>
      <path d="M678.9,322.28c3.17-.89,3.49,4.56-.09,3.96-2.07-.34-1.55-3.5.09-3.96Z"/>
      <path d="M662.05,315.62c-1.44-2.3,2.51-5.16,3.68-1.96.87,2.39-2.88,3.24-3.68,1.96Z"/>
      <path d="M677.59,294.15l2.73.45.55,1.26c-.92,3.58-4.48.88-3.28-1.71Z"/>
      <path class="cls-1" d="M453.2,207.78c-.39,1.07-4.5,6.11-5.52,5.01l-.03-4.78,5.54-.23Z"/>
      <path class="cls-1" d="M357.84,209.79c-1.26,3.77-4.32,3.96-6.52.75l6.52-.75Z"/>
      <path class="cls-1" d="M464.24,88.83l3.44,62.16-23.01,2.58c-2.69-9.64-6.87-18.89-9.3-28.6-1.07-4.26-3.18-12.43-1.92-16.49.7-2.24,4.53-5.42,5.94-2.59.56,1.12-1.32,8.18,2.27,4.79,5.17-4.88-3.01-14.2-9.81-6.29-4.48,5.21-1.73,14.68-.31,20.9,2.18,9.56,6.18,18.71,8.1,28.29-19.43,1.5-31.13-15.41-35.14-32.36l12.84-1.22c1.01-3.97-2.34-2.09-4.53-2.02-3.09.1-6.21-.11-9.3-.03-1.51-9.11-2.63-18.33-1.98-27.57l62.71-1.54Z"/>
      <path class="cls-1" d="M631.7,242.08c2.24,2.34,1.05,6.98,5.69,5.85-.25,3.43.17,5.67,2.15,8.39.25.34,1.08.47,1.41.88.41.51-.11,1.24-.06,1.27.21.13,4.32-.55,3.52,2.01l.82-1.01c1.27-.13,2.67.21,3.92-.02,2.76-.51,11.4-4.77,6.12-7.46-5.32,7.06-16.18,6.05-14.89-4.32.91-7.34,12.5-11.06,15.52-3.95.87,2.04.28,4.17,2.7,5.33,1.16.56,2.77.48,3.85,1.17,1.22.78,1.63,2.99,2.65,3.41,4.64,1.9,5.39-1.17,6.63-4.75.22-.19,2.74-.44,2.98-.4.37.06.32.69.44.75.43.2.87-.2,1.38.42,1.01,1.24,2.37,4.91,2,6.49-.08.36-.84.34-.87.42-.2.45.51,1.5-.99,3.79-.81,1.24-2.27,1.52-2.49,1.77-.36.4-.32,1.75-.92,1.88-.53.11-1.02-.72-1.5-.81-2.45-.45-1.47,4.87-1.76,5.99-.1.39-.99.3-1,.63-.24,5.13-2.49,9.63-5.81,13.74-9.16,11.33-25.98,15.56-39.21,7.65-11.23-6.71-15.95-19.98-14.65-32.91.24-2.42,2.25-5.56.19-7.33-2.25,1.15-.79,4.61-3.26,4.01l1.04.8-1.05,5.22c-2.62-2.38-3.56-2.74-2.88-6.66.88-5.15,4.94-7.33,9.67-5.42.79,6.27,3.61,11.07,10.52,10.57,1.27-.09,7.07-1.85,7.91-2.51.93-.74,1.33-3.92,3.89-3.51.2-.91-.84-.32-1-.5-.2-.23,2.04-2.29.19-2.95l-1.75.26c-1.88,8.16-16.41,9.45-16.51-.05-.08-7.01,10.27-13.46,15.39-8.12ZM625.84,245.42c-.3,1.85.15,5.78,2.74,5.54,3.4-.32,4.72-10.94-1.94-10.06-3.24.43-9.64,8.05-6.57,11.02,1.08.02,3.29-7.32,5.77-6.51ZM648.43,244.92c-.48,2.57-.76,4.9,1.83,6.44,4.42-.42,4.22-8.72.41-9.44-3.61-.68-7.06,1.82-8.69,4.84-.49.91-1.99,4.24.26,3.28,1.96-.83,3.27-5.11,6.18-5.11ZM634.31,258.85c-1.09.86-2.67-1.14-3.4-.84-.22.09-2.38,3.24-2.75,3.77-.21.29-.76.2-.78.23-.18.28.72.7.77,1.2.1,1.07-.99,2.68.72,3.57.73.38,2.52-.37,3-.79.56-.49-1.53-.2-1.01-1.75l1.02-.5-1.01-.5c2.5-3.8,3.78.74,7.02.25l-1.51-4.52-1.24.52-.27-1.51-.57.88ZM639.82,281.95c.2-.22.2-1.15.56-1.66,1.85-2.65,4.39-5.84,1-8.53-2.01-1.59-5.22.37-6.25,2.27l-.5-1.01-.99,1c-2.49-3.32-6.56-2.66-6.83,1.78-.14,2.34,1.23,4.37,2.92,5.78,1.07.89,3.06.77,3.15,2.49h.49c-.55-1.8,4.07-.54,4.94-1.13.21-.14.23-.82.58-1.07.25-.18.84.18.92.09Z"/>
      <path class="cls-1" d="M350.32,123.46l.75,31.63-13.68,11.02c-7.78,4.4-15.43,9.1-23.7,12.57l-2.52-53.71,39.15-1.51Z"/>
      <path class="cls-1" d="M310.66,122.46l-1-30.12,39.43-.53.75,28.92-39.18,1.73ZM331.58,108.75c3.5-3.83-1.91-8.97-5.34-6.1-4.3,3.6,1.85,9.92,5.34,6.1Z"/>
      <path class="cls-1" d="M393.98,90.34c1.51,1.52-10.19,25.77-12.52,28.87l-28.09,1.19-1.05-29.07,41.66-1Z"/>
      <path class="cls-1" d="M379.42,121.96c-5.09,9.1-12.14,16.67-19.09,24.31l-6.5,5.79-.28-28.63,25.88-1.47Z"/>
      <path class="cls-1" d="M642.41,230.36l1.5-.5v1.52s1.25-.52,1.25-.52l.27,1.51.78-1.03,2.23.78-2.48,1.3c-.44.6,1.32,2.32-.23,4.02-1.03,1.13-2.02.67-2.67,1.09-.76.49-.48,2.41-2.64,1.38l.5,1.2c-1.67.77-1.67,4.66-4.21,3.78-1.13-.39-1.91-6.62-4.82-5.99.04-.86,1.44-.57,2.21-1.05,1.02-.63,1.09-2.03,2.3-1.97l-2.5-4c3.11.31,5.41-2.41,7.84-3.97l1.19.74-.5,1.72Z"/>
      <path class="cls-1" d="M388.96,118.94l8.52-19.07,2.46,17.77c-.2.59-.64.7-1.19.79-1.14.19-9.43.83-9.78.5Z"/>
      <path class="cls-1" d="M658.47,227.86l.29,7.79c.85,2.82,1.39,5.75,2.12,8.62.19.74,1.08.78-.16,1.65l-3.33-5.69-2.43-2.09,1.51-.25c-.82-1.56.88-2.08-.19-3.84-1.32-2.18-3.65-1.35-5.84-2.19l8.02-4.01Z"/>
      <path class="cls-1" d="M628.05,230.69c.24.31,1.2-.08.8,1.18l-1.2-.5-2.25,1.81.94,4.21c-2.3-1.05-4.64,1.1-6.56,1.76-.68.23-1.41-.31-1.46-.25-.52.64-1.05,4.03-3.53,3.52,1.01,1.52-.04,1.34-.78,2.53l-3.22-1.28c.74-1.47,2.35-.72,2.9-.91.21-.07,1.08-1.72,1.18-1.76.34-.11,1.08.57,1.38.39.2-.13,2.2-2.87,2.89-3.67,1.17-1.37,6.3-8.9,7.46-8.78.68.41.98,1.16,1.45,1.75Z"/>
      <path class="cls-1" d="M636.89,303.64c-.66,1.91-2.35,3.04-4.01,4.01l-.5-4.01h4.51Z"/>
      <path class="cls-1" d="M550.06,201.76l-2-1.01v-.99s.74,0,.74,0c.59.61,1.45,1.04,1.26,2Z"/>
      <path class="cls-1" d="M190.59,21.71c12.26-1.68,12.73,12.33,11.6,21.14-3.53,27.64-28.3,58.71-47.85,77.62-3.11,3.01-7.71,7.52-11.07,10.01-.86.63-1.77,1.59-2.93,1.49-1.45-.41-3.52-11.35-3.77-13.33-3.35-26.46,6.13-52.35,22.32-72.91,6.38-8.1,21.28-22.59,31.7-24.01Z"/>
      <path class="cls-1" d="M250.44,192.22c-.23,2.56-1.56,4.94-4.28,5.01l.21,1.4c-1.95.82-3.12,2.93-5.46,2.62l1.03,2.49,20.81-10.01,1.03,4.02c-2.71.95-6.22,3.53-8.71,4.36-2.65.89-5.69.79-8.58,1.96-1.55.63-7.43,4.13-7.08,5.96,1.19,1.72,1.87-.21,3.01-.53.64-.18,1.44.34,1.49.29.14-.15-.03-1.79,1.01-2.25.39-.17,1.04.33,1.4.14.38-.21,2.83-1.86,3.32-1.99,4.32-1.2,9.65-1.55,13.37,1.35.43.87-1.4,1.21-1.81,1.23-1.88.06-4.5-.91-6.39-.81-1.64.09-4.65.63-6.54.85-.35.04-.24.86-.67.98-.64.17-1.41-.2-2.04.13s-1.55,3.08-3.62,1.89c2.15,3.3,6.3-.27,9.35-.52,1.14-.09.19,1.46,1.69,1.01v-1.5c2.29.75,6.18-1.53,6.03,2,1.34-1.3,2.67-1,4,.25-.62,1.2-1.41.11-1.86.36-.19.11.03.86-.86.95-3.55.37-5.9-.75-9.36.65-1.88.76-4.92.92-4.96,3.09-.03,1.19,1.3,1.03,2.19,1.26.62-1.89,1.25-.55,2.1-.67.5-.07.46-1.07,1.11-1.36,1.16-.52,3.53-.3,4.85-1.04l.53,1.05,2.76-1.03v1.51s3.01-1,3.01-1c1.37,1.35-3.74,2.91-4.37,2.9-.82-.02-1.31-.88-1.4-.88-.33,0-.57,1.12-.9,1.34-.59.4-3.52,1.27-3.86,1.67l.26,1,1.28-.3c.42,2.19,1.98,1.85,3.47,3.57,3.32,3.85,4.02,11.16,3.52,16.04-.2,1.93-.25,2.97-2.37,3.18l-1.24-1.34-8.21-1.55c.19-4.52-1.88-8.17-4.04-12.02-.5-.89-1.45-1.61-1.93-2.6-.32-.66-.22-1.9-.28-1.98-.05-.06-.84.55-1.48.28-1.26-.53-1.89-2.1-1.03-3.28-.58-.07-1.47.21-1.93-.08-.28-.17-3.06-5.06-2.61-5.93-2.4,1.16-3.12-6.61-2.65-7.93.23-.64,1.17-.56,1.17-.91.03-3.89,1.49-6.24,4.32-9.19,3.01-3.15,5.06-3.81,8.86-5.1.44-.15,1.24-1.84,3.38-.97Z"/>
      <polygon class="cls-1" points="228.86 210.79 229.8 216.23 224.85 218.82 222.85 214.09 228.86 210.79"/>
      <path class="cls-1" d="M220.27,216.37l2.07,4.45-3.77,1.92-3.25-4.92c1.75-.23,3.09-1.93,4.96-1.45Z"/>
      <path class="cls-1" d="M43.5,406.19c.82,1.22,2.09,3.13,1.16,4.35,2.25-.31,3.8,2.47,5.51,3.77-2.82,3.25-5.84,5.56-9.78,7.28l-.25-1-2,.99c-.62-2.07,1.78-2.51,2.02-3.75.38-2-.78-2.98-1.02-4.78l-.49,1c-.93.75-4.1.47-4.39.62-2.08,1.11-5.47,3.65-7.78,4.55-1.13.45-2.67.74-3.9.85.46-1.68,2.24-1.83,3.01-2.34,2-1.33,2.24-2.22,4.72-2.18.38,0,.27-.91.9-1.16,1.31-.52,2.97.13,3.9-1.12.38-2.09-7.52-4.17-6.57-7.2l-1.45-.04.5-2-1.5.5c.26-1.55-2-3.05-3.24-3.04-.28,0-.27.85-.66,1-1.91.73-4.2,1.27-6.15.54l-.26,1.5-1.74-1-.77,2c-1.35.16-.17-1.48-1.75-1l-.25,1.52-1.75-.76c1.11-1.29,2.42-2.32,3.87-3.21,5.09-3.14,14.54-4.63,20.49-4.1.28.02,3.75.74,4.13.85,3.04.86,2.69,4.11,3.89,6.2.4.7,1.3.76,1.58,1.18Z"/>
      <path class="cls-1" d="M771.6,157.38c19.99,21.53,12.58,56.79-14.77,67.7-35.36,14.1-69.56-21.54-54.28-56.29,12.05-27.41,48.75-33.29,69.06-11.42ZM733.65,155.21c-2.47.19-10.06,3.1-10.45,5.67-.82,5.3,5.25-.5,6.89-1.17,2.95-1.2,5.84-1.66,8.65.17,1.59,1.03,4.63,7.06,6.32,3.73.91-1.78-2.42-5.2-3.83-6.22-2.25-1.63-4.82-2.39-7.59-2.17ZM765.74,170.01c2.68-2.68-5.34-8.42-8-9.06-9.95-2.41-14.81,6.6-19.59,13.35-5.99,8.45-11.2,17.46-17.37,25.79-1.36,1.96,0,2.91,1.81,3.55,1.6.56,14.49,3.53,15.12,3.09l.97-3.32-.41-.89c-3.83-1.27-7.99-1.59-11.83-2.75-.56-.17-.89.33-.72-.76l19.86-29.33c3.78-5.03,10.15-8.2,15.38-3.06,1.14,1.12,2.68,5.48,4.78,3.39ZM734,166.85c-5.07-.01-5.07,7.6,0,7.58,4.67-.01,4.97-7.57,0-7.58ZM749.68,171.73c-4.56.93-3.49,8.43,1.77,7.35,4.57-.94,3.34-8.4-1.77-7.35Z"/>
      <path class="cls-1" d="M572.15,139.02l-27.61-48.93,50.45-26.29,27.3,49.32-50.14,25.9ZM599.64,117.55l-3.17-.56-26.05-31.19c-2.29-1.55-7.96,1.1-5.32,3.82l2.52-.79,3.52,20.07c-.28.28-5.49-.77-5.02,1.25l5.54,1.99c.42,2.11,3.75,16.6,3.26,17.34-.42.64-2.09.46-1.22,2.95,2.35,1.03,4.62-1.29,4.72-3.7.1-2.59-3.76-16.12-3.27-16.82,3.9-.29,6.74-1.97,10.19-3.47.78.2,7.79,8.69,8.34,9.83s-.13,2.45.61,3.61c1.18.76,5.52-1.31,5.76-2.69l-.41-1.66ZM614.38,108.83c-.69-.42-6.29-12.15-7.69-14.14-2.89-4.13-2.66-.18-3.95.91-.57.48-1.91.61-3.01,1.5-7.78,6.24-1.79,22.98,7.4,18.44,2.48-1.22,2.99-3.56,4.41-5.62,1.34,2.58,4.19,3.6,6.22,1.16l-.53-2.1c-.81-.34-2.22.24-2.86-.15Z"/>
      <path class="cls-1" d="M686.53,158.06l-48.63-25.09,26.33-52.12,49.39,26.8-27.09,50.41ZM665.11,97.48c-2.33,2.33,1.29,6.68,4.19,4.44,3.31-2.56-1.41-7.22-4.19-4.44ZM700.51,118.82c.48-.52.62-1.94,1.01-2.66l-25.52-14.5c-2.71-.84-2.64-.23-2.9,2.38l25.56,15.15c.55.29,1.47.03,1.85-.37ZM659.09,114.81c3.11,3.11,8.6-3.55,3.03-4.79-3.69-.83-4.7,3.12-3.03,4.79ZM668.64,115.56c-2.25,2.3,1.89,3.99,3.55,4.98,2.14,1.28,9.56,5.79,11.38,6.24.36.09.66.26,1-.02,2.67-2.8,1.45-3.33-1.17-4.89-2.44-1.45-10.65-6.18-12.88-6.72-.64-.16-1.42-.07-1.88.41ZM653.31,123.06c-3.53,1.05-1.51,7.02,2.64,5.15,2.95-1.33,1.22-6.3-2.64-5.15ZM660.51,127.51c-.1.09-.53,2.27-.45,2.63.37,1.67,11.95,7.09,13.96,8.66,2.04.35,4.18-1.21,2.52-3.05-2.36-.86-14.62-9.48-16.03-8.25Z"/>
      <path d="M639.82,281.95c-.08.09-.67-.27-.92-.09-.35.25-.37.93-.58,1.07-.87.59-5.49-.67-4.94,1.13h-.49c-.08-1.71-2.08-1.6-3.15-2.49-1.69-1.41-3.07-3.44-2.92-5.78.27-4.44,4.34-5.09,6.83-1.78l.99-1,.5,1.01c1.03-1.9,4.24-3.86,6.25-2.27,3.39,2.69.85,5.88-1,8.53-.36.51-.36,1.44-.56,1.66Z"/>
      <path d="M625.84,245.42c-2.48-.81-4.69,6.53-5.77,6.51-3.07-2.98,3.33-10.59,6.57-11.02,6.66-.89,5.35,9.74,1.94,10.06-2.59.24-3.04-3.69-2.74-5.54Z"/>
      <path d="M648.43,244.92c-2.91,0-4.22,4.28-6.18,5.11-2.25.96-.75-2.37-.26-3.28,1.63-3.02,5.08-5.52,8.69-4.84,3.81.72,4.01,9.02-.41,9.44-2.59-1.54-2.31-3.87-1.83-6.44Z"/>
      <path d="M634.31,258.85l.57-.88.27,1.51,1.24-.52,1.51,4.52c-3.24.49-4.52-4.05-7.02-.25l1.01.5-1.02.5c-.52,1.55,1.58,1.26,1.01,1.75-.48.42-2.28,1.17-3,.79-1.71-.89-.63-2.5-.72-3.57-.04-.5-.94-.92-.77-1.2.02-.03.58.06.78-.23.38-.53,2.54-3.68,2.75-3.77.73-.3,2.31,1.71,3.4.84Z"/>
      <path d="M331.58,108.75c-3.5,3.82-9.64-2.5-5.34-6.1,3.43-2.87,8.84,2.27,5.34,6.1Z"/>
      <path d="M765.74,170.01c-2.1,2.1-3.64-2.26-4.78-3.39-5.22-5.14-11.59-1.97-15.38,3.06l-19.86,29.33c-.17,1.09.16.59.72.76,3.84,1.15,8,1.48,11.83,2.75l.41.89-.97,3.32c-.63.44-13.52-2.53-15.12-3.09-1.8-.63-3.16-1.59-1.81-3.55,6.17-8.33,11.39-17.34,17.37-25.79,4.78-6.75,9.64-15.76,19.59-13.35,2.65.64,10.67,6.38,8,9.06Z"/>
      <path d="M733.65,155.21c2.76-.22,5.33.55,7.59,2.17,1.4,1.02,4.73,4.44,3.83,6.22-1.69,3.33-4.73-2.69-6.32-3.73-2.81-1.83-5.7-1.37-8.65-.17-1.65.67-7.71,6.47-6.89,1.17.39-2.57,7.98-5.47,10.45-5.67Z"/>
      <path d="M749.68,171.73c5.11-1.05,6.34,6.41,1.77,7.35-5.26,1.08-6.33-6.42-1.77-7.35Z"/>
      <path d="M734,166.85c4.97.01,4.67,7.57,0,7.58-5.07.01-5.07-7.6,0-7.58Z"/>
      <path d="M599.64,117.55l.41,1.66c-.24,1.38-4.58,3.45-5.76,2.69-.74-1.16-.05-2.45-.61-3.61s-7.56-9.63-8.34-9.83c-3.45,1.5-6.29,3.18-10.19,3.47-.5.7,3.37,14.23,3.27,16.82-.09,2.41-2.37,4.73-4.72,3.7-.88-2.49.79-2.31,1.22-2.95.49-.74-2.84-15.23-3.26-17.34l-5.54-1.99c-.47-2.02,4.74-.97,5.02-1.25l-3.52-20.07-2.52.79c-2.65-2.73,3.02-5.38,5.32-3.82l26.05,31.19,3.17.56ZM571.65,92.35l2.74,15.58c.79,1.25,8.6-1.35,8.27-3.22l-11-12.36Z"/>
      <path d="M614.38,108.83c.64.39,2.05-.19,2.86.15l.53,2.1c-2.04,2.43-4.88,1.42-6.22-1.16-1.42,2.06-1.93,4.39-4.41,5.62-9.2,4.54-15.18-12.2-7.4-18.44,1.11-.89,2.44-1.02,3.01-1.5,1.29-1.09,1.05-5.04,3.95-.91,1.39,1.99,7,13.72,7.69,14.14ZM603.13,98.44c-6.33,1.25-5.28,15.66,1.34,14.98,2.85-.29,4.97-4.69,4.79-7.25-.09-1.29-3.66-7.4-4.86-7.73-.43-.15-.84-.09-1.27,0Z"/>
      <path d="M700.51,118.82c-.38.4-1.3.67-1.85.37l-25.56-15.15c.26-2.61.19-3.22,2.9-2.38l25.52,14.5c-.39.71-.52,2.14-1.01,2.66Z"/>
      <path d="M668.64,115.56c.47-.48,1.24-.56,1.88-.41,2.22.54,10.44,5.27,12.88,6.72,2.62,1.56,3.84,2.09,1.17,4.89-.35.28-.64.1-1,.02-1.82-.45-9.24-4.96-11.38-6.24-1.65-.99-5.79-2.68-3.55-4.98Z"/>
      <path d="M660.51,127.51c1.41-1.23,13.67,7.39,16.03,8.25,1.66,1.84-.48,3.39-2.52,3.05-2.02-1.57-13.59-6.99-13.96-8.66-.08-.36.35-2.54.45-2.63Z"/>
      <path d="M659.09,114.81c-1.67-1.67-.66-5.62,3.03-4.79,5.57,1.25.08,7.9-3.03,4.79Z"/>
      <path d="M653.31,123.06c3.86-1.15,5.6,3.83,2.64,5.15-4.15,1.87-6.17-4.1-2.64-5.15Z"/>
      <path d="M665.11,97.48c2.78-2.78,7.5,1.88,4.19,4.44-2.9,2.24-6.53-2.11-4.19-4.44Z"/>
      <path class="cls-1" d="M571.65,92.35l11,12.36c.34,1.86-7.48,4.47-8.27,3.22l-2.74-15.58Z"/>
      <path class="cls-1" d="M603.13,98.44c.43-.09.84-.15,1.27,0,1.2.33,4.77,6.44,4.86,7.73.17,2.56-1.95,6.96-4.79,7.25-6.62.68-7.67-13.74-1.34-14.98Z"/>
    </g>
  </g>
</svg>