<?xml version="1.0" encoding="UTF-8"?>
<svg id="Layer_2" data-name="Layer 2" xmlns="http://www.w3.org/2000/svg" viewBox="0 0 42.34 46.49">
  <g id="Layer_1-2" data-name="Layer 1">
    <path d="M41.81,12.28c-2.6,2.6-5.13-3.6-8.18-4.23-4.62-.95-7.46.65-9.97,4.21-5.95,8.41-10.37,18.82-16.49,27.25-.16,1.1.16.58.74.73,3,.73,11.3,1.18,13.32,2.46,1.5.94.43,3.61-1.38,3.79-.67.07-2.08-.26-2.92-.35-1.83-.19-14.57-2.24-15.01-2.87l.06-2.99c6.62-9.5,11.56-21.16,18.2-30.5,4.35-6.12,10.71-8.29,17.55-4.33,1.76,1.02,6.12,4.81,4.08,6.85Z"/>
    <path d="M18.46,7.32c-1.71,1.77-3.81-1.42-5.31-2.14-2.75-1.33-5.97-.91-8.65.35-.95.45-2.65,2.74-4.06.43C-2.21,1.58,7.79-.31,10.83.04c2.67.3,10.75,4.04,7.63,7.28Z"/>
    <path d="M26.89,16.47c3.65-1.07,6.59,4.04,3.1,6.61-4.47,3.29-8.08-5.15-3.1-6.61Z"/>
    <path d="M7.02,13.5c6.39-1.9,6.55,8.71.11,6.64-3.53-1.14-2.83-5.83-.11-6.64Z"/>
  </g>
</svg>