<?xml version="1.0" encoding="UTF-8"?>
<svg id="Layer_2" data-name="Layer 2" xmlns="http://www.w3.org/2000/svg" viewBox="0 0 42.11 51.23">
  <g id="Layer_1-2" data-name="Layer 1">
    <path d="M3.73.33C5.89-.16,21.66-.09,23.75.45c6.37,4.34,12.5,9.33,18.1,14.67l.27,31.04c-.56,2.95-1.6,4.45-4.71,4.73-10.69.96-23.21-.54-34.01-.3-2.11-1.2-2.8-1.96-3.03-4.42-1.18-13.1.94-27.96.01-41.26C.6,3.08,1.76.76,3.73.33ZM19.76,4.69H7.59c-.19,0-1.74,1.13-1.74,1.24v39.23l.74.74h29.3l.74-.74v-23.09h-11.67c-1.69,0-5.21-2.32-5.21-4.22V4.69ZM24.23,5.19v10.68c0,2.37,9.81,2.07,11.67,1.74.72-.13,1.32-.41,1.26-1.25l-12.93-11.16Z"/>
    <path d="M13.06,27.53h16.39c.15,0,.92,1.01,1.23,1.24-.31.24-1.08,1.24-1.23,1.24H13.06c-.15,0-.92-1.01-1.23-1.24l1.23-1.24Z"/>
    <polygon points="30.19 38.46 12.56 38.46 11.82 37.72 12.31 36.47 29.94 36.47 30.67 37.22 30.19 38.46"/>
  </g>
</svg>