<?xml version="1.0" encoding="UTF-8"?>
<svg id="Layer_2" data-name="Layer 2" xmlns="http://www.w3.org/2000/svg" viewBox="0 0 43.8 44.71">
  <g id="Layer_1-2" data-name="Layer 1">
    <path d="M18.97.19c28.66-3.32,34.19,38.34,7.68,43.92C-3.6,50.49-10.71,3.63,18.97.19ZM19.46,5.64c-24.56,3.33-14.42,42.09,9.16,32C46.1,30.17,38.98,2.99,19.46,5.64Z"/>
    <path d="M12.31,31.15C.65,18.86,20.21.31,31.74,13.94c10.69,12.65-7.92,29.33-19.43,17.2ZM16.27,17.09c-5.59,5.58,1.73,16.67,9.73,11.47,9.1-5.92-1.74-19.46-9.73-11.47Z"/>
    <path d="M21.81,18.64c5.92,0,3.9,9.98-1.93,6.67-3.26-1.85-1.2-6.67,1.93-6.67Z"/>
  </g>
</svg>