<?xml version="1.0" encoding="UTF-8"?>
<svg id="Layer_2" data-name="Layer 2" xmlns="http://www.w3.org/2000/svg" viewBox="0 0 49.1 48.83">
  <g id="Layer_1-2" data-name="Layer 1">
    <path d="M20.42.21c19.73-2.39,34.8,16.26,26.22,34.63C35.11,59.49-2.71,49.48.15,21.18,1.15,11.28,10.5,1.41,20.42.21ZM20.53,13.97h7.95c.09-1.53-1.99-6.42-3.23-6.51-3.39-.24-4.62,3.79-4.73,6.51ZM14.51,13.92l1.53-5.91c-2.6,1.14-4.53,3.21-6.45,5.22-.21,1.12.49.68,1.23.74,1.21.09,2.48.02,3.69-.05ZM39.41,13.97c.83-.74-5.32-5.88-6.45-5.96l1.51,5.94,4.95.02ZM13.57,20.42l-7.24.47.25,7.26,6.99.22v-7.95ZM29.47,20.43h-9.94v7.94h9.94v-7.94ZM35.43,28.37l7.24-.47-.25-7.26-6.99-.22v7.95ZM16.05,40.78l-1.95-6.24-4.5-.22c-1.17,1.14,5.11,6.2,6.45,6.45ZM28.48,34.33h-7.95c.7,9.28,7.49,9.2,7.95,0ZM39.91,34.33l-4.99.22-1.96,6.23c2.83-1.43,5.51-3.6,6.95-6.45Z"/>
  </g>
</svg>