<?xml version="1.0" encoding="UTF-8"?>
<svg id="Layer_2" data-name="Layer 2" xmlns="http://www.w3.org/2000/svg" viewBox="0 0 59.92 49.18">
  <g id="Layer_1-2" data-name="Layer 1">
    <path d="M49.45,0v38.25c-3.77.21-7.48,1.16-11.11,2.13-1.97.53-6.78,2.77-8.14,2.77s-6.17-2.24-8.14-2.77c-3.63-.97-7.33-1.91-11.11-2.13V0c6.7,1.14,13.06,3.48,19.17,6.35,6.01-3.29,12.52-5.41,19.33-6.35ZM16.45,34.27l9.98,2.77,1.02-.53V11.18c-2.72-2.95-7.12-4.04-11-4.72v27.82ZM43.45,6.46c-3.63.89-7.52,1.82-10.5,4.22v26.08l10.5-2.48V6.46Z"/>
    <path d="M4.2,49.18c-2.13-.46-3.53-3.73-3.75-5.71-.64-5.63-.56-18.64-.02-24.36.45-4.8,3.48-6.13,8.02-6.19v4.47c-2.47-.28-3.23.3-3.51,2.72-.51,4.46-.6,18.04-.02,22.39.11.81,1.15,2.71,1.78,2.71h19.25v3.97H4.2Z"/>
    <path d="M53.2,45.2c1.37-.25,1.62-1.55,1.75-2.72.81-7.46-.6-16.24,0-23.85-.46-2.34-4.45.28-3.5-4.47.43-2.16,3.49-1.07,4.96-.43,1.95.84,2.81,2.86,3.04,4.9.63,5.5.63,19.83,0,25.33-.12,1.06-.34,2.11-.99,2.99-.25.34-2.58,2.22-2.76,2.22h-21.75v-3.97c5.7-.72,13.86.97,19.25,0Z"/>
  </g>
</svg>