<?xml version="1.0" encoding="UTF-8"?>
<svg id="Layer_2" data-name="Layer 2" xmlns="http://www.w3.org/2000/svg" viewBox="0 0 50.46 52.15">
  <defs>
    <style>
      .cls-1 {
        fill: #fff;
      }
    </style>
  </defs>
  <g id="Layer_1-2" data-name="Layer 1">
    <g>
      <path d="M29.82.23c1.75-.07,3.62-.37,5.37-.16,1.58.19,11.96,7.15,13.43,8.57.36.35.74.61.86,1.14.34.82.4,1.66.47,2.53.73,8.56.67,23.94,0,32.54-.19,2.45-.38,4.76-3.3,5.2-9.88,1.48-20.97.46-30.95,2.05-2.69-.2-5.13.72-7.27-1.27C7.37,49.85.25,40.25.03,39.23l-.03-35.31c.32-.95,2.71-1.65,3.71-1.79C11.42,1.07,21.94.53,29.82.23ZM42.42,8.58c-2.02-1.96-5.41-5.16-8.24-5.5L4.42,5.09c-.73.65,5.08,5.23,6.23,5.02l31.77-1.53ZM45.92,45.34V12.84l-1.25-.75-33.93,1.98c-.55.2-.8,3.52-.84,4.25-.48,7.29-.55,18.79,0,26.04.06.79.24,2.85.84,3.28,7.95.73,16.41-.52,24.43-1.04,1.79-.12,10.22.38,10.74-1.26Z"/>
      <path class="cls-1" d="M45.92,45.34c-.53,1.63-8.96,1.14-10.74,1.26-8.02.52-16.48,1.77-24.43,1.04-.6-.43-.78-2.48-.84-3.28-.55-7.25-.49-18.75,0-26.04.05-.73.3-4.05.84-4.25l33.93-1.98,1.25.75v32.5ZM34.92,20.09v13l-9.6-14.4c-1.53-.33-10.48-.54-9.9,2.14l2.53,1.04v19.41s-2.52,1.56-2.52,1.56c.48.7.94.75,1.74.79s6.12-.57,6.78-.77c.58-.18,1.08-.56,1.47-1.02l-3.49-1.25v-14.5l11.21,16.53c1.29.96,4.35.41,5.47-.48.87-.69,0-19.53.28-22.24l2.24-.76.3-1.54c-2.71.35-8.98-1.3-9,2.5h2.5Z"/>
      <path class="cls-1" d="M42.42,8.58l-31.77,1.53c-1.15.21-6.96-4.37-6.23-5.02l29.76-2.01c2.82.35,6.22,3.55,8.24,5.5Z"/>
      <path d="M34.92,20.09h-2.5c.02-3.8,6.29-2.15,9-2.5l-.3,1.54-2.24.76c-.28,2.71.59,21.55-.28,22.24-1.12.89-4.18,1.45-5.47.48l-11.21-16.53v14.5l3.49,1.25c-.39.46-.88.84-1.47,1.02-.66.2-6.02.81-6.78.77s-1.26-.09-1.74-.79l2.52-1.56v-19.41s-2.53-1.04-2.53-1.04c-.58-2.68,8.36-2.46,9.9-2.14l9.6,14.4v-13Z"/>
    </g>
  </g>
</svg>