<?xml version="1.0" encoding="UTF-8"?>
<svg id="Layer_2" data-name="Layer 2" xmlns="http://www.w3.org/2000/svg" viewBox="0 0 46 48.12">
  <defs>
    <style>
      .cls-1 {
        fill: #fff;
      }
    </style>
  </defs>
  <g id="Layer_1-2" data-name="Layer 1">
    <g>
      <path d="M45.85,7.19l.16,37.67c-.53.49-1.17.95-1.89,1.11-1.58.34-4.98.44-6.9.6-4.66.39-9.79.27-14.49.51-3.52.18-8.08,1.06-11.5,1.04-2.07-.02-3.48-.44-3.78-2.77l.26-35.79c.38-.58,2.27-.91,3.02-.98,9.7-.97,21.24-1.71,30.98-2.03,1.07-.03,3.4-.1,4.15.64ZM42.97,15.57c-.57-.06-1.06-.32-1.65-.32-7.23-.05-16.74.75-24.1,1.33-1.29.1-6.75.52-6.75,1.75v24.5c0,2.33,7.84.82,9.26.76,7.33-.36,14.66-.68,21.99-1.01l1.25-.75V15.57Z"/>
      <path d="M5.47,41.07c-2.54.24-4.49.13-4.97-2.78-1.54-9.4,1.1-22.66-.04-32.48.31-2.74,1.72-3.4,4.26-3.74C14.75.73,25.17,1.49,35.21.03c2.96-.29,4.96,1.66,4.04,4.58l-29.92,2.08c-1.22-.11-3.87,2.18-3.87,3.13v31.25Z"/>
      <path class="cls-1" d="M42.97,15.57v26.25l-1.25.75c-7.33.33-14.66.65-21.99,1.01-1.42.07-9.26,1.58-9.26-.76v-24.5c0-1.23,5.47-1.64,6.75-1.75,7.35-.58,16.87-1.38,24.1-1.33.59,0,1.08.26,1.65.32ZM40.46,19.57l-12.78.96c-1.51,5.4,3.85,4.08,7.28,4.04-1.7,4.44-7.56,8.95-4.67,14.04l3.13.42,7.04-19.46ZM19.47,35.57c2.25-2.85,6.52-5.93,6.9-9.86.68-7.19-12.65-6.82-11.83.53l1.7,1.33c1.31.34.43-1.58.98-2.5.79-1.32,2.91-.71,3.51.51,2.04,4.15-7.48,10.8-7.04,13.51l1.02,1.03c2.78-.78,9.74.24,11.54-1.51,1.15-1.12,1.52-3.03-.08-3.96l-6.69.93Z"/>
      <path d="M19.47,35.57l6.69-.93c1.59.94,1.22,2.85.08,3.96-1.79,1.75-8.76.73-11.54,1.51l-1.02-1.03c-.44-2.71,9.08-9.36,7.04-13.51-.6-1.21-2.72-1.83-3.51-.51-.55.92.33,2.84-.98,2.5l-1.7-1.33c-.82-7.35,12.52-7.72,11.83-.53-.37,3.94-4.65,7.02-6.9,9.86Z"/>
      <path d="M40.46,19.57l-7.04,19.46-3.13-.42c-2.9-5.09,2.97-9.59,4.67-14.04-3.43.04-8.79,1.36-7.28-4.04l12.78-.96Z"/>
    </g>
  </g>
</svg>