<?xml version="1.0" encoding="UTF-8"?>
<svg id="Layer_2" data-name="Layer 2" xmlns="http://www.w3.org/2000/svg" viewBox="0 0 46.44 42.95">
  <defs>
    <style>
      .cls-1 {
        fill: #fff;
      }
    </style>
  </defs>
  <g id="Layer_1-2" data-name="Layer 1">
    <g>
      <path d="M30.83,42.31c-3.48,3.12-9-6.16-11.05-5.81-2.4,1.13-4.19,7.59-7.33,5.7l-3.58-16.41L.61,18.3c-1.65-3,.34-3.45,2.59-4.36C15.62,8.89,28.96,5.16,41.44.15c2.07-.62,4.86.78,5,3.08l-15.61,39.09ZM41.95,4.44L6.46,17.19l7.16,5.17,21.58-13.92c.78.14.69.6.26,1.25-.52.8-2.41,2.49-3.24,3.26-2.2,2.06-15.34,12.42-15.71,13.84-.13.51-.01.71.18,1.14.48,1.05,10.79,9.05,11.52,8.99,5.66-10.26,10.21-21.31,13.74-32.48Z"/>
      <path class="cls-1" d="M41.95,4.44c-3.53,11.17-8.08,22.22-13.74,32.48-.73.05-11.05-7.95-11.52-8.99-.19-.43-.31-.63-.18-1.14.37-1.41,13.51-11.77,15.71-13.84.83-.77,2.72-2.46,3.24-3.26.42-.65.52-1.11-.26-1.25l-21.58,13.92-7.16-5.17L41.95,4.44Z"/>
    </g>
  </g>
</svg>